<?xml version="1.0" encoding="utf-8"?>
<!-- Generator: Adobe Illustrator 23.0.3, SVG Export Plug-In . SVG Version: 6.00 Build 0)  -->
<svg version="1.1" id="Livello_1" xmlns="http://www.w3.org/2000/svg" xmlns:xlink="http://www.w3.org/1999/xlink" x="0px" y="0px"
	 viewBox="0 0 164.6 61.2" style="enable-background:new 0 0 164.6 61.2;" xml:space="preserve">
<style type="text/css">
	.st0{display:none;}
	.st1{enable-background:new    ;}
	.st2{fill:#FFFFFF;}
	.st3{fill:none;stroke:#FFFFFF;stroke-width:1.2396;stroke-miterlimit:10;}
</style>
<rect class="st0" width="164.6" height="61.2"/>
<g id="Group_28" transform="translate(-135.687 287.708)">
	<g class="st1">
		<path class="st2" d="M138.1-280.3l20-0.1v4.4l-15.1,0.1v8.1l12.9-0.1v4.4l-12.9,0.1v8.2l15.1-0.1v4.4l-20,0.1V-280.3z"/>
		<path class="st2" d="M167.1-271.2l0.1,20.2h-4.8l-0.1-29.4h4.5l8.8,12.9l4.7,7.3h0.2l-0.1-20.3h4.8l0.1,29.4h-4.6l-9-13.2
			L167.1-271.2L167.1-271.2z"/>
		<path class="st2" d="M190.5-280.6l20-0.1v4.4l-15.1,0.1v8.1l12.9-0.1v4.4l-12.9,0.1v8.2l15.1-0.1v4.4l-20,0.1V-280.6z"/>
		<path class="st2" d="M225.7-276.4l0.1,25.1H221l-0.1-25.1h-8.2v-4.4l21.1-0.1v4.4L225.7-276.4z"/>
	</g>
	<path id="Path_2940" class="st2" d="M274.6-248.4c0,1.1-3.4,2.4-3.4,5.6c0,0.3,0.1,0.6,0.2,0.9c0.4,1.5,1.7,2.5,3.2,2.5
		s2.8-1,3.2-2.5c0.1-0.3,0.2-0.5,0.2-0.9C277.9-246.1,274.6-248.4,274.6-248.4z"/>
	<path id="Path_2941" class="st2" d="M287.5-252.8c0-12.4-13-21.5-13-21.5c0,4.3-13,9.3-13,21.5l0,0c0,1.2,0.2,2.3,0.5,3.4l0,0
		c1.3,4.6,4.9,8.2,9.6,9.3c-2-0.9-3.5-2.7-4.2-4.8c-0.2-0.6-0.2-1.3-0.2-2c0-6.8,7.3-9.6,7.4-12.1l0,0c0,0,0,0,0.1,0
		c0.6,0.5,7.3,5.5,7.3,12.1c0,0.6-0.1,1.3-0.2,2c-0.5,2.1-2.1,3.9-4.2,4.8c4.6-1.1,8.3-4.6,9.6-9.3l0,0
		C287.4-250.5,287.5-251.6,287.5-252.8L287.5-252.8z"/>
	<path id="Rectangle_39" class="st3" d="M255.7-280.7H293c2.6,0,4.7,2.1,4.7,4.7v37.3c0,2.6-2.1,4.7-4.7,4.7h-37.3
		c-2.6,0-4.7-2.1-4.7-4.7V-276C251-278.6,253.1-280.7,255.7-280.7z"/>
</g>
<g>
	<path class="st2" d="M33.8,41.6h6.6v1.3h-5.2v4H40v1.3h-4.7v4.3h5.2v1.3h-6.7V41.6z"/>
	<path class="st2" d="M45.3,45.8L44.3,44h-0.1l0.2,1.7v7.9h-1.3V41.4h0.8l5.8,8.1l0.9,1.7h0.1l-0.2-1.7v-7.9h1.3v12.3H51L45.3,45.8z
		"/>
	<path class="st2" d="M54.7,41.6h6.6v1.3h-5.2v4h4.7v1.3h-4.7v4.3h5.2v1.3h-6.7V41.6z"/>
	<path class="st2" d="M64,41.7c0.4-0.1,0.9-0.1,1.5-0.2c0.6,0,1.1-0.1,1.6-0.1c0.5,0,1,0.1,1.5,0.2c0.5,0.1,0.9,0.3,1.3,0.6
		c0.4,0.3,0.7,0.6,0.9,1c0.2,0.4,0.3,0.9,0.3,1.6c0,0.9-0.3,1.7-0.8,2.3s-1.2,1-2,1.2l0.8,0.6l3,4.8h-1.7l-3.3-5.2l-1.7-0.3v5.5H64
		V41.7z M67.1,42.7c-0.1,0-0.3,0-0.5,0s-0.3,0-0.5,0c-0.2,0-0.3,0-0.4,0c-0.1,0-0.2,0-0.3,0.1v4.5h1.3c0.8,0,1.5-0.2,2-0.6
		s0.8-1,0.8-1.8c0-0.6-0.2-1.1-0.6-1.5C68.5,42.9,67.9,42.7,67.1,42.7z"/>
	<path class="st2" d="M77.6,47.7h4.1V53c-0.2,0.1-0.4,0.3-0.7,0.4c-0.3,0.1-0.5,0.2-0.8,0.3c-0.3,0.1-0.6,0.1-0.9,0.2
		c-0.3,0-0.6,0.1-0.9,0.1c-0.8,0-1.5-0.1-2.1-0.4s-1.2-0.6-1.7-1.1c-0.5-0.5-0.8-1.2-1.1-2c-0.3-0.8-0.4-1.7-0.4-2.8
		c0-1.1,0.2-2.1,0.5-2.9c0.3-0.8,0.7-1.4,1.3-1.9s1.1-0.9,1.7-1.1s1.3-0.3,1.9-0.3c0.7,0,1.3,0,1.7,0.1c0.4,0.1,0.8,0.2,1.1,0.3
		L81,43.1c-0.6-0.3-1.3-0.4-2.4-0.4c-0.5,0-1,0.1-1.4,0.2c-0.5,0.2-0.9,0.4-1.3,0.8c-0.4,0.4-0.7,0.9-0.9,1.5
		c-0.2,0.6-0.4,1.4-0.4,2.4c0,0.9,0.1,1.6,0.3,2.2s0.5,1.1,0.8,1.5c0.4,0.4,0.8,0.7,1.3,0.9c0.5,0.2,1,0.3,1.6,0.3
		c0.7,0,1.4-0.1,1.9-0.4v-3.4l-2.8-0.3V47.7z"/>
	<path class="st2" d="M86.8,48.9l-4-7.3h1.7l2.8,5.3l0.3,1.1h0l0.3-1.1l2.7-5.3h1.5l-4,7.3v4.8h-1.4V48.9z"/>
</g>
</svg>
