<?xml version="1.0" encoding="utf-8"?>
<!-- Generator: Adobe Illustrator 24.0.3, SVG Export Plug-In . SVG Version: 6.00 Build 0)  -->
<svg version="1.1" id="Layer_1" xmlns="http://www.w3.org/2000/svg" xmlns:xlink="http://www.w3.org/1999/xlink" x="0px" y="0px"
	 viewBox="0 0 595.3 841.9" style="enable-background:new 0 0 595.3 841.9;" xml:space="preserve">
<style type="text/css">
	.st0{fill:#A29062;}
</style>
<g>
	<path class="st0" d="M468.1,652.2c0-1.9-1.5-3.5-3.5-3.5c-1.9,0-3.5,1.5-3.5,3.5c0,1.9,1.5,3.5,3.5,3.5
		C466.5,655.7,468.1,654.1,468.1,652.2L468.1,652.2z M467.5,652.2c0,1.6-1.3,3-2.9,3c-1.6,0-2.9-1.3-2.9-3c0-1.6,1.3-3,2.9-3
		C466.2,649.3,467.5,650.6,467.5,652.2L467.5,652.2z M466,654h0.6v-0.2c-0.2,0-0.3-0.1-0.9-0.9l-0.4-0.7c0.4-0.1,0.7-0.5,0.7-1
		c0-0.6-0.6-0.9-1.2-0.9h-1.7v0.2c0.4,0,0.5,0.1,0.5,0.2v2.9c0,0.2-0.1,0.2-0.5,0.2v0.2h1.6v-0.2c-0.4,0-0.5-0.1-0.5-0.2v-1.2h0.5
		C465.6,653.9,465.8,654,466,654L466,654z M464.6,652.2h-0.5v-1.7h0.4c0.4,0,0.8,0.2,0.8,0.8C465.4,651.9,465.1,652.2,464.6,652.2
		L464.6,652.2z M457.1,650h0.3v-0.5c-0.6,0-1.2,0-1.7,0c-0.6,0-1.2,0-1.7,0v0.5h0.2c0.9,0,1.1,0.4,1.1,2.2l0.1,6.6h0l-7.6-9.3
		c-0.4,0-0.8,0-1.3,0c-0.5,0-1,0-1.4,0v0.5h0.5c0.8,0,1.2,0.2,1.2,1.4c0,1.9,0,4.9-0.1,7c0,1.7-0.2,2-1,2h-0.3v0.5
		c0.5,0,1.2,0,1.8,0c0.6,0,1.2,0,1.8,0v-0.5h-0.3c-0.8,0-1-0.4-1-1.7c-0.1-2.5-0.1-5-0.1-7.5h0l8,9.8h0.5l0.3-9.4
		C456.1,650.2,456.6,650,457.1,650L457.1,650z M440.8,655.2c0-3.3-2.8-5.9-6-5.9c-3.2,0-6,2.5-6,6.1c0,3.2,2.5,5.8,6,5.8
		C438.6,661.2,440.8,658.1,440.8,655.2L440.8,655.2z M439.2,655.4c0,3-1.4,5.1-4.3,5.1c-2.8,0-4.5-2.9-4.5-5.5
		c0-3.7,2.1-5.1,4.4-5.1C437.6,650,439.2,652.8,439.2,655.4L439.2,655.4z M422.3,660.9c0.7,0,1.4,0,2.1,0v-0.5h-0.3
		c-0.7,0-1.1-0.3-1.1-1.3v-7.8c0-1,0.3-1.3,1.1-1.3h0.3v-0.5c-0.7,0-1.4,0-2.1,0c-0.7,0-1.5,0-2.1,0v0.5h0.3c0.7,0,1.1,0.3,1.1,1.3
		v7.8c0,1-0.3,1.3-1.1,1.3h-0.3v0.5C420.8,660.9,421.6,660.9,422.3,660.9L422.3,660.9z M415.4,652.4h0.5v-2.9c-0.5,0-3.2,0-5.1,0
		c-2.1,0-4.6,0-5.1,0v2.9h0.5c0.1-1.3,0.3-2.3,2-2.3h1.8v8.8c0,1.3-0.2,1.5-1,1.5h-0.4v0.5c0.6,0,1.3,0,2.1,0c0.8,0,1.5,0,2.1,0
		v-0.5h-0.4c-0.9,0-1-0.2-1-1.5v-8.8h1.8C415.1,650.2,415.3,651.2,415.4,652.4L415.4,652.4z M390.9,349c-4.7-13.2,2-21,6.9-26.7
		c2.7-3.1,4.8-5.6,3.8-8.7c-1.2-3.4-7.8-14.4-19.5-33.5l-0.2-0.3c-1.8-3-3.7-6-5.6-9.1c-0.7-1.2-2.1-1.8-3.4-1.7
		c-5.6,0.6-11.1,0.9-16.3,0.9c-23.8,0-39.1-6-47.6-10.9c17.7-1,32.6-3,36.5-5.6c0.7-0.4,0.9-0.6,1.2-1.2c0.3-0.8,0.3-1.5,0-2.1
		c-0.4-0.7-1.2-1.1-2.3-1.4c0,0-0.4-0.1-1-0.3c-0.1-0.3-0.1-0.6-0.2-1.1c-0.2-0.8-0.4-1.9-0.5-3.2c1.2-0.6,2.1-1.8,2.1-3.3
		c0-1.4-0.8-2.6-2-3.2c-0.1-0.1-0.2-0.1-0.4-0.2c0.1-0.9,0.3-1.7,0.7-2.2c0.3,0.1,0.5,0.1,0.8,0.2c0.8,0.2,2.3,0.3,2.8-0.9
		c0.3-0.8,0.3-1.5,0-2.1c-0.4-0.7-1.1-1.1-2.2-1.3l2.3-4.2l8-13.8c0.4,0.1,0.8,0.1,1.2,0.1c3.2,0,5.8-2.6,5.8-5.8
		c0-3.2-2.6-5.8-5.8-5.8c-3.2,0-5.8,2.6-5.8,5.8c0,1.5,0.6,2.9,1.5,3.9c-1.8,2.9-6.9,9.8-12.5,6.6c-6.4-3.6-2-14-1.2-15.9
		c0.3,0.1,0.7,0.1,1,0.1c3.2,0,5.8-2.6,5.8-5.8c0-3.2-2.6-5.8-5.8-5.8c-3.2,0-5.8,2.6-5.8,5.8c0,1.7,0.8,3.3,2,4.3
		c-1.3,2.6-6.3,11.7-12.7,8c-6.6-3.8-4-12.9-3.3-15c2.7-0.4,4.9-2.8,4.9-5.7c0-3.2-2.6-5.8-5.8-5.8c-3.2,0-5.8,2.6-5.8,5.8
		c0,2.1,1.2,4.1,3.1,5.1c0,0,0,0,0,0c-0.3,2.5-2,14.4-7.8,14.2c-7-0.3-8.5-12.1-8.6-15.2c2.4-0.7,4.2-2.9,4.2-5.5
		c0-3.2-2.6-5.8-5.8-5.8c-3.2,0-5.8,2.6-5.8,5.8c0,2.8,2.1,5.2,4.8,5.7c-0.1,3.4-1.7,14.7-8.8,15c-5.7,0.2-7.6-10.7-8-13.8
		c1.6-1,2.6-2.8,2.6-4.8c0-3.2-2.6-5.8-5.8-5.8c-3.2,0-5.8,2.6-5.8,5.8c0,3,2.2,5.4,5.1,5.7c0.8,2.4,3,10.8-3.4,14.6
		c-6.6,3.9-11.6-5.6-12.7-7.8c1.1-1.1,1.8-2.5,1.8-4.2c0-3.2-2.6-5.8-5.8-5.8c-3.2,0-5.8,2.6-5.8,5.8c0,3.2,2.6,5.8,5.8,5.8
		c0.5,0,0.9-0.1,1.4-0.2c1.1,2.4,4.9,12.2-1.3,15.6c-5.6,3.1-10.6-3.6-12.5-6.5c0.7-1,1.1-2.1,1.1-3.4c0-3.2-2.6-5.8-5.8-5.8
		c-3.2,0-5.8,2.6-5.8,5.8c0,3.2,2.6,5.8,5.8,5.8c0.5,0,0.9-0.1,1.3-0.2l9.8,17.6c-0.6,0.3-1,0.6-1.2,1c-0.3,0.6-0.3,1.3,0,2.1
		c0.3,0.8,1.1,1.1,1.9,1.1c0.3,0,0.6,0,0.9-0.1c0,0,0.1,0,0.1,0c0.1,0.5,0.3,1.2,0.5,2.1c-1.2,0.6-2,1.8-2,3.2c0,1.6,1.1,3,2.6,3.4
		c0,0.4-0.1,0.8-0.1,1.3c-0.2,1.1-0.6,2.2-1.2,3.1c-0.1,0-0.3,0-0.4,0.1c-1.2,0.2-2,0.7-2.3,1.4c-0.3,0.6-0.3,1.3,0,2.1
		c0.1,0.3,0.4,0.7,0.4,0.7c2.1,2.5,18.4,5,36.7,6c-8.5,4.9-23.8,10.9-47.6,10.9c-5.2,0-10.7-0.3-16.3-0.9c-1.4-0.1-2.7,0.5-3.4,1.7
		c-1.9,3.1-3.7,6.1-5.6,9.1l-0.2,0.3c-11.7,19.1-18.4,30.1-19.5,33.5c-1.1,3.1,1.1,5.6,3.8,8.7c4.9,5.7,11.7,13.5,6.9,26.7
		c-0.3,0.8-0.6,1.8-1,2.8c-6.6,17.7-24,64.9-1.9,107.6c15.2,29.4,46.2,50.6,92.1,63.1c0.1,0,0.2,0.1,0.3,0.1
		c1.1,0.2,2.2,0.4,3.5,0.5c0.1,0,0.3,0,0.4,0c0.1,0,0.3,0,0.4,0c1.3-0.2,2.4-0.3,3.5-0.5c0.1,0,0.2,0,0.3-0.1
		c45.9-12.4,76.9-33.6,92.1-63.1c22.1-42.8,4.6-89.9-1.9-107.6C391.6,350.7,391.2,349.8,390.9,349L390.9,349z M239.1,213.3
		c-2.7,0-4.9-2.2-4.9-4.9c0-2.7,2.2-4.9,4.9-4.9c2.7,0,4.9,2.2,4.9,4.9C244,211.1,241.8,213.3,239.1,213.3L239.1,213.3z
		 M351.1,207.5c0-2.7,2.2-4.9,4.9-4.9c2.7,0,4.9,2.2,4.9,4.9c0,2.7-2.2,4.9-4.9,4.9C353.3,212.4,351.1,210.2,351.1,207.5
		L351.1,207.5z M252.6,238.6c0.1,0,0.1-0.1,0.2-0.1c0.4-0.2,0.8-0.3,1.2-0.3c1.5,0,2.7,1.2,2.7,2.7c0,1.5-1.2,2.7-2.7,2.7
		c-0.3,0-0.5-0.1-0.8-0.1c0,0-0.1,0-0.1,0c-1-0.4-1.8-1.4-1.8-2.5C251.3,240,251.8,239.1,252.6,238.6L252.6,238.6z M256.2,201.9
		c-2.7,0-4.9-2.2-4.9-4.9c0-2.7,2.2-4.9,4.9-4.9c2.7,0,4.9,2.2,4.9,4.9C261.1,199.7,258.9,201.9,256.2,201.9L256.2,201.9z
		 M276.9,193.6c-2.7,0-4.9-2.2-4.9-4.9c0-2.7,2.2-4.9,4.9-4.9c2.7,0,4.9,2.2,4.9,4.9C281.8,191.4,279.6,193.6,276.9,193.6
		L276.9,193.6z M297.9,191.6c-2.7,0-4.9-2.2-4.9-4.9c0-2.7,2.2-4.9,4.9-4.9c2.7,0,4.9,2.2,4.9,4.9
		C302.8,189.4,300.6,191.6,297.9,191.6L297.9,191.6z M316.2,192.4c-1.6-0.9-2.6-2.5-2.6-4.3c0-2.7,2.2-4.9,4.9-4.9
		c2.7,0,4.9,2.2,4.9,4.9c0,2.7-2.2,4.9-4.9,4.9C317.7,193,316.9,192.8,316.2,192.4L316.2,192.4z M334.2,196.4c0-2.7,2.2-4.9,4.9-4.9
		c2.7,0,4.9,2.2,4.9,4.9s-2.2,4.9-4.9,4.9C336.4,201.3,334.2,199.1,334.2,196.4L334.2,196.4z M299.8,230l-1.2,0
		c-15.9,0-31.7,1.6-47,4.8c0,0-1.4,0.4-1.7-0.4c-0.2-0.4-0.3-0.9-0.1-1.3c0.2-0.4,0.8-0.8,1.7-0.9l0,0c52-9.6,91.7-0.3,92.1-0.2
		l0.4,0.1l0,0c0.8,0.2,1.6,0.5,1.8,0.9c0.2,0.4,0.1,1,0,1.3c-0.3,0.8-1.7,0.4-1.8,0.4C328.4,231.4,315.2,230,299.8,230L299.8,230z
		 M265.6,236.2c1.5,0,2.7,1.2,2.7,2.7c0,1.5-1.2,2.7-2.7,2.7c-1.5,0-2.7-1.2-2.7-2.7C262.9,237.4,264.1,236.2,265.6,236.2
		L265.6,236.2z M277.6,235c1.5,0,2.7,1.2,2.7,2.7c0,1.5-1.2,2.7-2.7,2.7c-1.5,0-2.7-1.2-2.7-2.7C274.9,236.2,276.1,235,277.6,235
		L277.6,235z M291,234.2c1.5,0,2.7,1.2,2.7,2.7c0,1.5-1.2,2.7-2.7,2.7c-1.5,0-2.7-1.2-2.7-2.7C288.3,235.5,289.5,234.2,291,234.2
		L291,234.2z M302.5,234.2c1.5,0,2.7,1.2,2.7,2.7c0,1.5-1.2,2.7-2.7,2.7c-1.5,0-2.7-1.2-2.7-2.7C299.8,235.5,301,234.2,302.5,234.2
		L302.5,234.2z M315.9,235c1.5,0,2.7,1.2,2.7,2.7c0,1.5-1.2,2.7-2.7,2.7c-1.5,0-2.7-1.2-2.7-2.7C313.2,236.2,314.4,235,315.9,235
		L315.9,235z M329.2,236.2c1.5,0,2.7,1.2,2.7,2.7c0,1.5-1.2,2.7-2.7,2.7c-1.5,0-2.7-1.2-2.7-2.7
		C326.5,237.4,327.7,236.2,329.2,236.2L329.2,236.2z M342.5,243.3c-0.1,0-0.2,0.1-0.2,0.1c-0.3,0.1-0.7,0.2-1.1,0.2h0
		c-1.5,0-2.7-1.2-2.7-2.7c0-0.7,0.3-1.4,0.8-1.9c0.5-0.5,1.2-0.8,1.9-0.8c0.4,0,0.8,0.1,1.1,0.3c0.1,0,0.2,0.1,0.3,0.2
		c0.8,0.5,1.3,1.3,1.3,2.3C343.8,241.9,343.3,242.8,342.5,243.3L342.5,243.3z M344.1,252.2c-15.7-3.3-28.9-4.7-44.2-4.7l-1.2,0
		c-15.9,0-31.7,1.6-47,4.8c0,0-0.3,0.1-0.7,0.1c-0.6,0-0.9-0.2-1.1-0.5c-0.2-0.5-0.2-1-0.1-1.3c0.2-0.4,0.8-0.8,1.7-0.9
		c16.2-3.2,32.6-4.9,48.6-4.9c26.9,0,43.8,4.7,44,4.7c0.9,0.2,1.5,0.5,1.7,0.9c0.2,0.4,0.1,1,0,1.3c-0.1,0.3-0.5,0.5-1.1,0.5
		C344.4,252.3,344.1,252.2,344.1,252.2L344.1,252.2z M306.9,257.6c-4.5-2.9-6.6-5.1-6.6-5.2c-0.7-0.8-1.7-1.3-2.7-1.3
		c-1.1,0-2.1,0.5-2.7,1.3c-0.1,0.1-2.1,2.3-6.6,5.2c-18.5-0.7-33.1-2.7-36.8-4.3c0.3,0,0.4-0.1,0.4-0.1c15.2-3.2,31-4.8,46.8-4.8
		l1.2,0c15.3,0,28.5,1.4,44,4.7c0,0,0.1,0,0.2,0C341,254.8,326.1,256.9,306.9,257.6L306.9,257.6z M390.6,352.3
		c6.5,17.6,23.8,64.3,2,106.5c-15,29.1-45.7,50-91.2,62.3c-0.1,0-0.1,0-0.2,0c-1.1,0.2-2.1,0.4-3.4,0.5c-0.1,0-0.2,0-0.3,0
		c-0.1,0-0.2,0-0.3,0c-1.3-0.2-2.4-0.3-3.4-0.5c-0.1,0-0.1,0-0.2,0c-45.5-12.3-76.2-33.3-91.2-62.3c-21.8-42.2-4.5-88.9,2-106.5
		c0.4-1.1,0.7-2,1-2.9c5-14-2.3-22.5-7.2-28.1c-2.5-2.9-4.3-5-3.5-7.3c1.1-3.3,8.1-14.8,19.4-33.2c1.9-3.1,3.8-6.2,5.7-9.4
		c0.4-0.7,1.2-1.1,2.1-1c5.6,0.6,11.2,0.9,16.5,0.9c41.2,0,57.2-17.7,57.4-17.9c0.4-0.5,1-0.8,1.7-0.8c0.6,0,1.2,0.3,1.7,0.8
		c0.2,0.2,16.2,17.9,57.4,17.9c5.3,0,10.8-0.3,16.5-0.9c0.8-0.1,1.6,0.3,2.1,1c1.9,3.2,3.9,6.3,5.7,9.4c11.3,18.5,18.3,30,19.4,33.2
		c0.8,2.3-1,4.4-3.5,7.3c-4.9,5.6-12.2,14.1-7.2,28.1C389.9,350.3,390.2,351.2,390.6,352.3L390.6,352.3z M388.6,353l-0.2-0.5
		c-0.3-0.9-0.6-1.6-0.8-2.3c-5.5-15.2,3-25,7.6-30.3c1.5-1.7,2.5-2.9,2.9-3.8l0.4-0.8l-0.3-0.8c-1.5-3.7-9.6-17-19.1-32.5l-5.7-9.4
		l-1.3,0.1c-5.2,0.5-10.4,0.8-15.4,0.8c-35.8,0-53.1-13.2-57.6-17.2l-1.4-1.3l-1.5,1.3c-4.5,4-21.8,17.2-57.6,17.2
		c-5,0-10.1-0.3-15.3-0.8l-1.3-0.1l-5.8,9.5c-9.4,15.4-17.5,28.6-19,32.3l-0.3,0.8l0.4,0.8c0.4,0.9,1.5,2.2,2.9,3.8
		c4.6,5.3,13,15.1,7.6,30.3c-0.3,0.8-0.7,1.8-1.1,2.9c-6.4,17.3-23.4,63.4-2.1,104.7c14.7,28.5,44.9,49.1,89.8,61.2l0.2,0
		c0.9,0.2,1.8,0.3,2.9,0.4l0.3,0l0.3,0c1.1-0.1,2-0.3,3-0.4l0.2,0c44.9-12.2,75.1-32.7,89.7-61.2C412,416.4,395,370.4,388.6,353
		L388.6,353z M296.4,517.5c0-0.6,0.5-1.1,1.1-1.1c0.6,0,1.1,0.5,1.1,1.1c0,0.6-0.5,1.1-1.1,1.1C296.9,518.6,296.4,518.1,296.4,517.5
		L296.4,517.5z M200.6,315.1c0,0.6-0.5,1.1-1.1,1.1c-0.6,0-1.1-0.5-1.1-1.1c0-0.6,0.5-1.1,1.1-1.1
		C200.1,314,200.6,314.5,200.6,315.1L200.6,315.1z M224.1,275.1c0,0.6-0.5,1.1-1.1,1.1c-0.6,0-1.1-0.5-1.1-1.1
		c0-0.6,0.5-1.1,1.1-1.1C223.5,274,224.1,274.5,224.1,275.1L224.1,275.1z M298.5,258.5c0,0.6-0.5,1.1-1.1,1.1
		c-0.6,0-1.1-0.5-1.1-1.1c0-0.6,0.5-1.1,1.1-1.1C298,257.3,298.5,257.8,298.5,258.5L298.5,258.5z M373.1,275.1
		c0,0.6-0.5,1.1-1.1,1.1c-0.6,0-1.1-0.5-1.1-1.1c0-0.6,0.5-1.1,1.1-1.1C372.6,274,373.1,274.5,373.1,275.1L373.1,275.1z
		 M394.7,314.8c0-0.6,0.5-1.1,1.1-1.1c0.6,0,1.1,0.5,1.1,1.1c0,0.6-0.5,1.1-1.1,1.1C395.2,315.9,394.7,315.4,394.7,314.8
		L394.7,314.8z M386.9,455.8c-14.1,27.3-43.4,47.2-86.9,59c-0.7,0.1-1.5,0.2-2.4,0.4c-0.9-0.1-1.6-0.2-2.3-0.3
		c-43.6-11.8-72.9-31.7-87-59c-20.5-39.7-3.9-84.4,2.3-101.3l0.4-1.1c0.2-0.7,0.5-1.3,0.7-1.9c6.3-17.6-3.2-28.6-8.4-34.6
		c-0.8-0.9-1.4-1.6-1.8-2.1c2.3-4.6,10.3-17.8,18.1-30.5l4.5-7.4c4.9,0.4,9.7,0.7,14.4,0.7c33.2,0,51.1-10.5,59-17.1
		c7.9,6.6,25.8,17.1,59,17.1c4.7,0,9.5-0.2,14.4-0.7l4.5,7.3c7.8,12.8,15.9,25.9,18.1,30.6c-0.5,0.6-1.2,1.4-1.7,2l-0.1,0.1
		c-5.1,5.9-14.7,17-8.4,34.5c0.3,0.8,0.7,1.8,1.1,2.9C390.8,371.4,407.3,416.1,386.9,455.8L386.9,455.8z M373.1,349.1l1.4-0.4
		l-1-1.1c0,0-3.2-3.7-3.5-8.9c-0.4-5.7-4.8-18-12.3-22.4c-3.3-1.9-6.8-2.1-10.3-0.4c-2.9-1.8-5.7-1.6-7.8-0.8
		c-1.8-3.4-3.5-5.6-3.6-5.7l-0.6-0.7l-0.9,0.4c-1.5,0.6-2.9,1.4-4.1,2.2c-3.3-2-12.2-6-19.7,1.2c-3.5,3.4-6.1,6.6-8.2,9.2
		c-0.9,1.2-2.2,2.6-3.1,3.6c-0.3-29.1-0.7-47.8-0.7-47.8c-0.4,30.5-0.7,68.9-0.9,105.2c-42-0.3-75.2,0.9-75.2,0.9
		c21.7,0.4,49.5,0.7,75.2,0.9c0,1.1-0.3,59.7-0.4,79.7c0,3.7,0,7.2,0,10.5c-0.1,15.9-0.1,25.6-0.1,25.6c0.4-9.1,0.7-18.3,1-27.5
		c3.6-7.1,8.7-13,14-19.1c7.4-8.5,15.1-17.3,18-29.9c0.4-1.8,0.7-3.6,1-5.3c0.1-0.1,0.3-0.3,0.5-0.5c2.2-2.9,3.1-9.3,3.1-9.3
		s-2.2,3.4-3,3.5c0.4-10.3-2.4-17.5-4.8-23.6c-0.2-0.5-0.4-1.1-0.6-1.6l1.2,1.4l0.5-0.4l1.4,2.2l-0.1-1.3c0.1,0.1,0.2,0.2,0.3,0.3
		l2.3,2.7l-0.2-1.2c0.2,0.1,0.4,0.3,0.6,0.4l1.9,1.8l-0.2-0.9c0.3,0.1,0.6,0.3,0.9,0.4l2.1,1.4l-0.3-0.9c0.2,0,0.5,0.1,0.7,0.1
		l1.8,1.2l-0.2-0.8c0.2,0,0.4,0.1,0.6,0.2l1.8,1.3l-0.3-0.9c0.2,0.1,0.3,0.1,0.5,0.2l1.4,1.1l0.2-0.5c0.2,0.1,0.4,0.2,0.6,0.3
		l1.3,1.3l-0.2-0.7c0.1,0,0.1,0.1,0.2,0.1l1.5,1.4l-0.1-0.5c1.1,0.9,1.9,1.9,2.3,2.9c0,0,0.1-0.7,0.1-1.9l0.2,0.1l-0.2-0.7
		c0-0.3-0.1-0.6-0.1-1l0.3,0.2l-0.5-1c-0.1-0.3-0.1-0.6-0.2-1l0.2,0.1l-0.4-0.6c-0.1-0.4-0.2-0.7-0.3-1.1l0.3,0.1l-0.5-0.7
		c-0.1-0.3-0.3-0.7-0.4-1l0.3,0.2l-0.5-0.7c-0.2-0.4-0.4-0.8-0.6-1.3l0.3,0.2L346,389c-0.2-0.4-0.5-0.9-0.8-1.3l0.4,0.1l-0.8-0.7
		c-0.2-0.3-0.5-0.7-0.7-1.1l0.6,0.1l-1.4-1.2c-0.2-0.3-0.4-0.5-0.6-0.8c0,0,0-0.1-0.1-0.1l0.8,0.2l-1.3-0.8c0.1,0,0.1,0,0.2,0
		c7.6,0.6,13.3-0.8,17-3.9c0.2-0.2,0.5-0.4,0.7-0.7c4.4-4.5,3.8-10.8,3.6-12.9c0-0.2,0-0.4,0-0.5h0c0,0,0,0,0,0.1l0,0c0,0,0,0,0-0.1
		c0,0,0,0,0,0l0,0c0.4-0.9,0.8-1.8,1.1-2.7C368.2,350.8,373,349.1,373.1,349.1L373.1,349.1z M330.3,382.7c0,0,0.3-0.4,1.1-0.1
		c0.7,1.2,2.1,2,3.7,2.9c1.7,1,4.6,2,6.2,3.1c3.2,2.2,5.2,5,6.1,7.3c-0.9-1.2-4.1-5.1-7.8-7.1c-1.7-0.9-4-1.9-5.7-2.9
		C332.4,385,331.3,384.3,330.3,382.7L330.3,382.7z M324.3,381.3c-0.5,0-0.9,0-1.3,0h-0.1c-0.2,0-0.5,0-0.7,0c-0.8,0-1.4,0-1.9-0.1
		c-0.4-0.1-0.7-0.2-1-0.5c-0.3-0.3-0.6-0.6-1-1.1c-0.2-0.2-0.4-0.6-0.7-1.1c-0.6-1-1.6-2.5-2.9-4.4c-1.9-2.7-4.5-6-8.1-9.8
		c-1-1-1.9-2-2.9-2.8c-2.1-2-3.5-4.5-4.2-7.4c0-3.2,0-6.4,0-9.4c0.8-3.8,2.6-7.4,5-10.4c-0.1,3.7,0.5,8.4,3.1,11.7
		c-1.8,2.8-2.7,7,1.9,12.3c4.6,5.2,7,6.9,8.4,8c1.2,0.8,1.4,1,1.8,2.3l0.3,1l1-0.4c0,0,0.1,0,0.2-0.1c0.6-0.2,2.9-0.7,6.6,0.5
		c5.1,1.7,9.4,2.4,12.8,2.1c0,0,0,0,0,0c0.6,0.3,1.5,0.6,2.6,0.8c0.3,0.1,0.7,0.2,1,0.2c1.7,0.3,3.7,0.6,5.7,0.6c0.7,0,1.4,0,2-0.1
		c3.4-0.3,6.1-1.5,8.3-3.4c0.6-0.5,1.1-1.1,1.6-1.7c0,2.6-0.4,6.4-3.2,9.3c-3.2,3.2-8.6,4.6-16.2,4c-0.6,0-1.2-0.1-1.8-0.1
		c0,0-0.1,0-0.1,0c-6.1-0.4-10.4-0.4-13.4-0.3c-0.2,0-0.5,0-0.7,0C325.7,381.2,325,381.3,324.3,381.3L324.3,381.3z M339.4,341.2
		c4.5,0.3,6.9,3,7.8,4.3c-7.2,6.2-12.1,3-13.3,2.1C336.1,345.5,337.9,343.3,339.4,341.2L339.4,341.2z M338.4,339.3
		c-0.2,0.3-0.4,0.6-0.7,1c-1.3,1.8-2.8,3.7-4.7,5.6c-0.1,0.1-0.1,0.1-0.2,0.2c-0.3,0.4-0.7,0.7-1.1,1.1c0,0,0,0,0,0
		c0-0.1,0-0.2,0-0.3c0-0.5,0-1,0-1.6c0.2-3.8,1.9-10.2,8.9-17.5c0.4-0.4,0.8-0.8,1.2-1.2c0.4-0.3,0.7-0.7,1.1-1
		c0.3-0.2,0.5-0.5,0.8-0.7c0.2-0.2,0.4-0.3,0.5-0.5c-0.2,1.2-0.5,2.8-1.1,4.6c-0.4,1.5-1,3.1-1.8,4.8
		C340.6,335.5,339.6,337.4,338.4,339.3L338.4,339.3z M344.7,349.5c-0.1,1.4-0.6,3.6-2.4,5.2c-2.5,2.4-6.7,3-12.6,2
		c-1.2-0.8-9.5-6.4-9.8-12.9c-0.1-2.8,1.3-5.5,4.2-8c2,6.5,5.4,11.6,5.8,12.2c0.1,0.8,0.2,1.2,0.2,1.3l0.4,1.4l1.1-1
		c0.3-0.3,0.6-0.5,0.9-0.8C333.6,349.8,338.1,353,344.7,349.5L344.7,349.5z M323.6,333.8c-3.8,3-5.7,6.4-5.5,10.1
		c0.1,1.4,0.4,2.7,1,4c-4.2,0.6-7.4-0.2-9.5-2.4c-4.5-4.7-2.9-14.6-2.7-16c3.3-5,6.7-7.6,10.1-7.8c2.6-0.2,4.7,1.2,5.7,2.1
		C322.3,327.1,322.8,330.6,323.6,333.8L323.6,333.8z M348.1,359.8c0,0.4,0,0.7,0,1.1c0,0.4,0,0.7-0.1,1.1c-0.3,3-1.4,5.2-3.3,6.5
		c-1.1,0.7-2.5,1.2-4.1,1.4c0,0-0.1,0-0.1,0c-3.1,0.4-7.2-0.3-12.1-2c-1.2-0.4-2.3-0.6-3.2-0.8c-1.8-0.2-3.1-0.1-3.9,0.1
		c-0.5-1.2-1.2-1.7-2.2-2.4c-1.4-1-3.7-2.6-8.1-7.6c-3-3.4-3.6-6.7-2-9.6c2.6,2.2,6.3,2.9,10.9,2.1l0-0.1c3,5.1,8.7,8.7,9,8.9
		l0.2,0.1l0.2,0c4.6,0.8,8.4,0.7,11.2-0.5C343.3,359.2,345.9,359.7,348.1,359.8L348.1,359.8z M317.4,381.5c0.1,0.2,0.3,0.3,0.4,0.4
		c0,0,0.1,0.1,0.1,0.1c-4.3,1.7-8.6,4.1-11.6,5.8C310.1,385.4,313.6,383.2,317.4,381.5L317.4,381.5z M299.5,389.5c0-0.6,0-1.2,0-1.8
		c0-9.8,0-19.3,0-28.4c0.3,0.6,0.7,1.2,1.1,1.7l3.7,3.8c0,0,4.7,4.7,5.4,6c0.7,0.7,2.4,2.9,3.6,4.7c-0.3,0.3-0.7,0.6-0.9,0.9
		l-1.1,0.8l0.5-0.2c-0.5,0.6-1,1.1-1.4,1.6l-1,0.8l0.5-0.1c-0.4,0.5-0.7,0.9-1,1.3l-1,0.8l0.4,0c-0.4,0.5-0.7,1-1,1.5l-0.8,0.7
		l0.4-0.1c-0.3,0.5-0.5,0.9-0.8,1.4l-1.1,1.3l0.5-0.1c-0.2,0.5-0.4,1-0.6,1.4l-0.6,0.9l0.3-0.1c-0.7,1.9-0.8,3-0.8,3
		c1.2-1.4,2.6-2.6,4.5-3.4l-0.4,0.7l2.7-1.5c0.1,0,0.2,0,0.3-0.1l-0.6,1l2.3-1.3c0.3,0,0.6-0.1,0.9-0.1l0,0.9l2.4-1.1
		c0.2,0,0.5,0,0.7,0l-0.8,1.2l3-1.2c0.3,0,0.5,0,0.8,0l-0.6,1.2l1.8-0.6c0.4,1.1,0.8,2.1,1.2,3.2c3,7.8,6.5,16.7,3,32.2
		c-1.9,8.4-6.2,14.9-11.2,21.1c-0.7,0.3-1.4,0.9-1.4,0.9c-0.9-0.4,0-6.3,0-6.3s-4.8,7.3-5.1,12.1c0,0.4,0,0.7,0,1
		c-3.1,3.6-6.2,7.2-9,11.2C299.1,437.5,299.4,412.6,299.5,389.5L299.5,389.5z M328.8,312.6c-0.1,0.1-0.2,0.2-0.4,0.3
		c-2.9,2.6-4.6,5.6-5.3,8.8c-1.4-1-3.5-2-6.2-1.9c-4.1,0.2-8,3.2-11.7,8.8l-0.1,0.2l0,0.2c0,0.1-0.2,1.1-0.4,2.4
		c-2.1,2.1-3.9,4.8-5.2,7.6c0-3.8-0.1-7.4-0.1-10.9c1.3-1.3,3.1-3.3,4.5-5.1c2.1-2.5,4.6-5.7,8.1-9
		C318.2,307.9,325.4,310.7,328.8,312.6L328.8,312.6z M340.4,321.7c0.3,1.1,0.5,2.1,0.7,3.1c-8,7.5-10.4,14.4-11.2,19.1
		c-3.6-6.8-10-21.6,0-30c1.4-1.2,3.1-2.2,5-3.1C336.2,312.4,339,316.5,340.4,321.7L340.4,321.7z M349.7,320.6c4.1,5.3,5.3,7.9,6,9.4
		c0.5,1.1,0.8,1.9,1.9,2.6c-0.5,1.2-1.2,3.6-0.7,7.2c1.1,8.4,0.1,14-3.1,16.5c-2.4,1.9-6.1,2.1-11,0.5c0.2-0.2,0.5-0.3,0.7-0.5
		c0.1-0.1,0.2-0.1,0.2-0.2c3-2.8,3-6.6,3-7.8c0.6-0.5,1.3-1,2-1.6c0.2-0.1,0.3-0.3,0.5-0.4l0.5-0.5l-0.4-0.7
		c-0.1-0.2-2.7-4.8-8.7-5.8c5.7-9.1,5.9-16.9,5.9-17.3l0-2l-1.6,1.2c-0.8,0.6-1.6,1.3-2.3,1.9c-0.5-2.3-1.3-4.5-2.2-6.4
		C343.7,315.7,346.8,317,349.7,320.6L349.7,320.6z M371.4,347.9c-1.9,1.2-5.7,4.7-8.5,14.4c-1.1,3.8-3.3,6.5-6.4,8
		c-1.2,0.6-2.5,0.9-3.8,1.1c-0.3,0.1-0.7,0.1-1,0.1c-0.1,0-0.2,0-0.4,0c-1.7,0.1-3.4,0-4.8-0.2c-0.3,0-0.6-0.1-0.9-0.1
		c-0.5-0.1-1-0.2-1.4-0.3c0.6-0.3,1.1-0.5,1.6-0.9c0.3-0.2,0.5-0.4,0.8-0.6c2-1.7,3.1-4.3,3.3-7.7c0-0.2,0-0.5,0.1-0.7
		c0-0.4,0-0.8,0-1.2c1.9-0.2,3.6-0.8,4.9-1.9c0.1-0.1,0.2-0.2,0.3-0.3c3.5-3.1,4.7-9.2,3.5-18c-0.6-4.5,0.8-6.7,0.8-6.7l0.6-0.9
		l-0.9-0.5c-1.2-0.7-1.3-1-1.9-2.2c-0.7-1.6-1.9-4.3-6.2-9.8c-0.7-0.9-1.4-1.6-2-2.2c2.6-1,5.2-0.7,7.6,0.7c6.8,4,11,15.7,11.3,20.8
		C368.4,343.1,370.3,346.3,371.4,347.9L371.4,347.9z M303.1,403.1c0,0.4,0,0.9,0,1.4l-0.2-0.3l0.2,0.9c0,0.5,0.1,1,0.1,1.5l-0.3-0.3
		l0.4,0.9c0.1,0.4,0.1,0.8,0.2,1.3l-0.5-0.4l0.7,1.7c0.1,0.3,0.1,0.6,0.2,0.9c0,0,0,0.1,0,0.1l-0.6-0.5l0.9,1.3
		c0.1,0.3,0.2,0.6,0.3,0.9l-0.3-0.2l0.6,0.9c0.1,0.4,0.3,0.7,0.4,1.1l-0.5-0.3l0.9,1.3c0.2,0.3,0.3,0.7,0.5,1l-0.4-0.3l0.8,1.1
		c0.2,0.4,0.5,0.8,0.7,1.2l-0.7-0.4l1.3,1.3c0.3,0.4,0.5,0.8,0.8,1.2l-0.7-0.1l1.6,1.4c0.2,0.3,0.5,0.6,0.7,0.9l-0.6,0l1.7,1.3
		c0.3,0.3,0.6,0.7,0.9,1l-0.5-0.1l1.6,1.4c0.2,0.3,0.5,0.5,0.7,0.8l-0.5-0.1l2.3,2l-0.6-0.1l1.7,1.2c0.3,0.3,0.6,0.6,0.9,0.9
		l-0.5,0.1l2.1,1.4c0.6,0.5,1,0.8,1,0.8c0.1-0.6,0.2-1.2,0.2-1.9l0.6-1.6l-0.5,0c0-0.3,0-0.6,0.1-1l0.9-3.3l-0.8,0.4
		c0-0.3,0-0.5,0-0.8l0.5-3.5l-0.8,0.2c0-0.2,0-0.4-0.1-0.7l0.2-4l-0.7,1.1c-0.1-0.5-0.2-1-0.3-1.4l0.2-2.5l-0.7,0.7
		c0-0.1-0.1-0.3-0.1-0.4l-0.4-3.7l-0.5,1.2c-0.1-0.1-0.1-0.3-0.2-0.4l-0.9-3.5l-0.4,1.2c-0.1-0.2-0.3-0.4-0.4-0.6l-0.9-2.4l-0.3,0.9
		c-0.2-0.2-0.4-0.5-0.7-0.7l-1.3-2.1l-0.1,1c-0.2-0.1-0.4-0.3-0.6-0.4l-1.1-1.8l-0.2,0.8c-0.2-0.1-0.3-0.3-0.4-0.4l-1-1.9l-0.1,0.9
		c-0.1-0.1-0.2-0.2-0.4-0.4l-0.8-1.6l-0.4,0.4c-0.1-0.2-0.3-0.3-0.4-0.5l-0.6-1.7l-0.1,0.7c0-0.1-0.1-0.1-0.1-0.1l-0.7-1.9l-0.1,0.5
		c-0.6-1.3-0.9-2.5-0.9-3.7c0,0-0.4,0.6-0.9,1.7l-0.1-0.2l-0.1,0.7c-0.1,0.3-0.2,0.6-0.3,0.9l-0.2-0.3l0,1.1c-0.1,0.3-0.1,0.6-0.2,1
		l-0.2-0.2l0.1,0.7c-0.1,0.4-0.1,0.7-0.2,1.1l-0.2-0.2l0.2,0.8c0,0.3,0,0.7-0.1,1.1l-0.2-0.3L303.1,403.1L303.1,403.1z M304.9,397.1
		c1.1,3.1,2.9,7.9,5.3,11.1c2,2.7,3.6,5,4.5,6.6c2.7,4.6,3.7,8.2,4.7,14.9c-0.9-5-3-10.8-4.4-13.3c-2.1-3.6-4.1-6-5.1-7.5
		C307.4,405,306.2,401.4,304.9,397.1L304.9,397.1z M285.5,356.1l0-2.6l-0.5,0c-1.6-0.1-2.8-0.2-3.6-0.4c-0.8-0.1-1.5-0.4-2.1-0.8
		c-0.6-0.4-1.3-1-1.9-1.8c-0.6-0.8-1.5-2.1-2.5-3.7l-7.6-12.7l0,0c0,0,6-4.9,7.7-10.9c0,0,0-0.1,0-0.1c0-0.1,0.1-0.2,0.1-0.4
		c0,0,0.5-2.5,0.5-4c0-1.1-0.2-2.3-0.7-3.8c-0.4-1.5-1.2-2.9-2.3-4.4c-1.1-1.5-2.7-2.7-4.7-3.7c-2-1-4.5-1.5-7.5-1.5
		c-0.9,0-2.4,0-4.4,0.1c-2.6,0.1-4.9,0.1-6.6,0.1h-16.7h0l-6.7,9.6v11.6h2.5l6.1-8.5h4.6l-0.1,12v29.7c-0.8-0.2-1.5-0.6-2-1.2
		c-0.8-1-1.2-2.3-1.3-3.8l0-0.6l-3.3,0L226,364l0.3,8.2l0.3,0.1c2.1,0.6,4.2,0.8,6,0.8c1.2,0,2.5-0.3,4-1c1.4-0.6,2.9-1.6,4.2-2.9
		l0,0c0,0,0,0,0.1-0.1c0,0,0.1-0.1,0.1-0.1c0.4-0.4,0.8-0.9,1.2-1.3c7.9-8.9,9.4-13.3,9.5-13.5c0.9-2.3,1.4-5.1,1.4-8.3v-0.7l8,13.1
		c0.9,1.5,1.8,2.7,2.7,3.6c0.9,0.9,1.8,1.6,2.8,2.1c1,0.5,2,0.8,3.2,1c1.1,0.2,2.5,0.2,4.2,0.2h2c1.1,0,1.7-0.1,1.9-0.1h0.4
		L285.5,356.1L285.5,356.1z M285.1,355.6h-0.1c-0.2,0-0.8,0-1.7,0.1l-2.2,0c-1.7,0-3.1-0.1-4.2-0.2c-1.1-0.2-2.2-0.5-3.1-1
		c-1-0.5-1.9-1.2-2.7-2.1c-0.9-0.9-1.8-2.1-2.7-3.6l-5.7-9.4l-2.4-3.9c-0.1-0.2-0.3-0.4-0.4-0.6c-0.3-0.4-0.5-0.7-0.8-0.9
		c-0.4-0.3-0.8-0.6-1.3-0.8c-0.5-0.2-1.2-0.3-1.9-0.3c0,0-0.1,0-0.4,0c-0.6,0-2.6,0.1-2.7,0.9l0,5.1l0,5.7v1.3
		c0,3.1-0.5,5.9-1.4,8.2c-0.9,2.3-2.1,4.1-3.5,5.5c-0.8,0.8-1.7,1.5-2.6,2c-0.6,0.4-1.2,0.7-1.8,0.9c-1.5,0.6-2.8,0.9-3.9,0.9
		c-0.2,0-0.4,0-0.6,0c-1.7-0.1-3.5-0.3-5.4-0.8l-0.1,0l-0.3-7.8h2.4l0,0.1c0,1.6,0.5,3,1.3,4c0.6,0.7,1.4,1.2,2.3,1.4
		c0.4,0.1,0.8,0.2,1.3,0.2c2,0,3.4-0.8,4.4-2.5c0.5-0.9,0.9-1.9,1.1-3.2c0.2-1.1,0.3-2.3,0.3-3.6v-8.4v-4.1v-18l0.1-12.2h-8.7
		c-1.4,0-2,3.8-2.3,6.5c-0.1,0.7-0.1,1.4-0.1,1.8l0,0.1h-2.1v-2v-9.2h16.3c1.8,0,4.1-0.1,6.6-0.1c2,0,3.4-0.1,4.4-0.1
		c2.9,0,5.3,0.5,7.3,1.4c2,1,3.5,2.2,4.5,3.6c1,1.4,1.8,2.9,2.2,4.3c0.4,1.4,0.6,2.7,0.6,3.7c0,2.1-0.3,4-1,5.6
		c-0.7,1.6-1.5,2.9-2.5,3.9c-1,1-2.1,1.8-3.2,2.3c-0.1,0-0.2,0.1-0.2,0.1c-0.9,0.4-1.7,0.8-2.6,1.1l-0.2,0.1l1.7,2.8l7.5,12.4
		c1,1.7,1.9,2.9,2.5,3.8c0.6,0.8,1.3,1.5,2,1.9c0.7,0.4,1.4,0.7,2.3,0.9c0.8,0.2,2,0.3,3.6,0.4l0.1,0V355.6L285.1,355.6z
		 M265.3,327.5c1.1-0.8,1.8-1.9,2.4-3.2c0.5-1.2,0.7-2.6,0.7-4.3c0-0.9-0.2-2-0.5-3.3c-0.4-1.2-1-2.5-1.8-3.8
		c-0.8-1.3-2-2.3-3.6-3.1c-1.5-0.8-3.4-1.2-5.6-1.2c-1,0-2.3,0.1-4,0.3l-0.2,0v6v3.6v10.9l0.2,0c0.9,0.3,2.4,0.4,4.4,0.4
		c1.5,0,2.8-0.2,4.1-0.5C262.8,329,264.2,328.3,265.3,327.5L265.3,327.5z M261.2,329c-1.2,0.3-2.6,0.5-4,0.5c-1.8,0-3.2-0.1-4.1-0.3
		v-10.5c0.9,0.2,1.7,0.5,2.4,0.9c1.5,0.8,2.7,1.8,3.5,3c0.8,1.2,1.4,2.5,1.8,3.7C261,327.3,261.2,328.2,261.2,329L261.2,329z
		 M229.3,429.8c-0.1,0.5-0.3,1.2-0.2,1.5c0.1,0.3,0.2,0.4,0.6,0.4c0.1,0,0.1,0,0.2,0.1c0.3,0.1,0.4,0,0.5-0.1l0.1-0.1
		c-0.1-0.1-0.2-0.1-0.3-0.1c0.6-0.2,1.3,0.3,1.5,0.4c0.2,0.2,0.5,0.4,0.8,0.6c0.3,0.2,0.6,0.4,1,0.7c0-0.1,0-0.2-0.1-0.3
		c0.1,0.1,0.2,0.3,0.3,0.4c0,0,0,0,0.1,0c0-0.1,0-0.2-0.1-0.3c0.1,0.2,0.2,0.4,0.3,0.5c0,0,0,0,0,0c0-0.1-0.1-0.2-0.1-0.3
		c0.1,0.1,0.2,0.2,0.3,0.4c0-0.1,0-0.2,0-0.3c0.1,0.2,0.2,0.4,0.3,0.6c0-0.2-0.1-0.4-0.2-0.6c0.1,0.1,0.2,0.3,0.3,0.4
		c0-0.2-0.1-0.3-0.1-0.5c0.1,0.2,0.2,0.4,0.3,0.6c-0.1-0.3-0.1-0.5-0.1-0.8c0,0.5,0.2,1,0.4,1.4c0-0.2,0.1-0.4,0-0.6
		c0.2,0.3,0.1,0.7,0.2,0.9c0,0.1,0.1,0.1,0.1,0.2c0-0.4,0-0.8,0-1.3c0.2,0.5,0.2,1,0.4,1.5c0.1,0.1,0.1,0.2,0.2,0.3c0,0,0,0,0,0
		c0-0.3,0.1-0.6,0.1-0.9c0,0.3,0.1,0.6,0.2,0.8c0,0.1,0.1,0.1,0.1,0.2c0.1-0.3,0.2-0.6,0.3-0.8c0,0.5-0.2,1.1,0.1,1.4c0,0,0,0,0,0
		c-0.1-0.3,0-0.5,0-0.8c0.1,0.3,0.1,0.5,0.3,0.7c0,0.1,0.1,0.1,0.1,0.1c-0.1-0.2-0.1-0.4-0.1-0.5c0.2,0.3,0.3,0.6,0.6,0.9
		c0.1,0.1,0.2,0.2,0.3,0.3c-0.1-0.4-0.1-0.9-0.4-1.2c0.4,0.2,0.5,0.7,0.6,1c0.1,0.3,0.1,0.5,0.2,0.8c0-0.1,0.1-0.3,0-0.4
		c0.1,0.2,0.1,0.4,0.2,0.5c0,0,0.1,0.1,0.1,0.1c-0.1-0.3-0.2-0.5-0.2-0.8c0.1,0.6,0.5,1.1,1,1.4c0,0,0,0,0,0
		c-0.2-0.3-0.5-0.6-0.5-0.9c0.2,0.6,0.7,0.7,1.2,1.1c-0.2-0.3-0.4-0.5-0.6-0.8c0.4,0.3,0.6,0.6,1,0.8c-0.1-0.2-0.2-0.4-0.3-0.5
		c0.2,0.1,0.4,0.3,0.6,0.4c0,0,0,0,0.1,0c-0.2-0.2-0.4-0.3-0.5-0.5c0.2,0.1,0.4,0.2,0.6,0.3c-0.1-0.2-0.2-0.3-0.4-0.4
		c0.4,0.1,0.7,0.4,0.9,0.7c0,0,0,0,0.1,0.1c0,0,0,0,0,0c0,0,0,0,0.1,0c0,0,0.1,0.1,0.1,0.1c-0.1-0.3-0.3-0.5-0.3-0.8
		c0.2,0.4,0.5,0.6,0.8,0.9c0,0,0,0,0,0c-0.1-0.2-0.1-0.3-0.2-0.4c0.1,0,0.2,0.1,0.3,0.2c-0.1-0.2-0.1-0.3-0.1-0.5
		c0.1,0.3,0.3,0.4,0.5,0.5c-0.1-0.1-0.1-0.3-0.1-0.4c0.1,0.4,0.3,0.6,0.7,0.6c0,0,0,0,0,0c0,0,0,0,0,0c0,0,0.1,0,0.1,0
		c0,0-0.1-0.1-0.1-0.1c-0.2-0.2-0.4-0.4-0.5-0.7c0.2,0.2,0.4,0.3,0.6,0.4c0,0,0,0,0.1,0c-0.2-0.3-0.3-0.7-0.6-0.9
		c0.4,0.2,0.5,0.7,0.7,0.9c0,0,0.1,0.1,0.1,0.1c-0.1-0.2-0.1-0.5-0.2-0.7c0.2,0.2,0.3,0.5,0.5,0.7c0.1,0.1,0.2,0.1,0.3,0.2
		c-0.2-0.2-0.3-0.5-0.4-0.8c0.3,0.3,0.5,0.6,0.8,0.8c0.1,0,0.2,0.1,0.3,0.1c-0.3-0.2-0.4-0.5-0.5-0.7c0.1,0.2,0.3,0.3,0.4,0.4
		c-0.1-0.1-0.2-0.2-0.3-0.3c0.1,0.1,0.3,0.2,0.4,0.3c-0.1-0.2-0.2-0.5-0.3-0.6c0.3,0.2,0.4,0.5,0.7,0.6c0,0,0.1,0.1,0.2,0.1
		c-0.2-0.1-0.3-0.3-0.4-0.5c0.2,0.3,0.5,0.4,0.8,0.5c0.1,0,0.1,0,0.2,0c-0.2-0.3-0.4-0.6-0.7-0.8c0.4,0.2,0.7,0.5,1,0.7
		c0.3,0.1,0.5,0.1,0.8,0.2c-0.1-0.1-0.3-0.3-0.4-0.5c0.4,0.5,1,0.6,1.6,0.6c-0.3-0.3-0.5-0.6-0.9-0.5c0.5-0.2,0.9,0.4,1.3,0.5
		c0.2,0.1,0.5,0.1,0.8,0c-0.2-0.1-0.3-0.1-0.5-0.2c0.3,0,0.6,0.1,0.9,0.1c0,0,0,0,0,0c-0.1-0.1-0.2-0.2-0.3-0.3
		c0.1,0.2,0.3,0.3,0.5,0.3c0.1,0,0.1,0,0.2,0c0.4,0,0.8-0.1,1.2-0.1c0.5-0.1,0.9-0.1,1.3-0.2c0.6-0.1,1.1-0.1,1.6-0.2v0
		c0,0,0.8,0,1.4,0.2c0.3,0.1,0.6,0.4,0.6,0.4c-0.1,0-0.1-0.1-0.2-0.1c-0.2-0.1-0.6-0.1-1-0.1l-0.5,0c0,0-0.2,0-0.4,0
		c0.2,0.1,0.4,0.1,0.6,0.2c-0.4-0.1-0.7-0.2-1.1-0.1c0.3,0.1,0.6,0.3,0.8,0.5c-0.3-0.2-0.6-0.2-0.9-0.3c0.2,0.1,0.3,0.2,0.4,0.3
		c-0.5-0.3-1-0.3-1.6-0.2c0.2,0.1,0.4,0.2,0.6,0.4c-0.3-0.2-0.6-0.3-0.8-0.3c0,0-0.1,0-0.1,0c0.2,0.1,0.3,0.2,0.5,0.3
		c-0.2-0.1-0.5-0.2-0.7-0.2l0.5,0.3c0,0-0.5-0.1-0.8-0.1c0,0,0.1,0,0.1,0.1c0.4,0.2,0.7,0.4,1.1,0.4c-0.4,0-0.8-0.1-1.2-0.3
		c-0.2-0.1-0.4-0.1-0.5-0.2l0,0.1c0.1,0.3,0.4,0.5,0.7,0.6c-0.3-0.1-0.6-0.2-0.9-0.4c-0.1-0.1-0.3-0.2-0.4-0.3
		c-0.2,2.1,0,4.2,0.6,6.2c0.7,2.6,3.4,4.8,4.1,5.5c-1.2-0.6-1.8-1.2-2.5-2c-0.3,0.3-0.4,0.4-0.8,0.8c-0.5,0.4-0.9,0.8-1.4,1.2
		c-1,0.8-1.9,1.6-2.8,2.4c0.3-0.1,0.6-0.3,0.9-0.4c0.5-0.3,0.9-0.8,1.4-1.1c-0.5,0.4-0.8,0.9-1.3,1.2c-0.5,0.3-1.1,0.5-1.5,1
		c-0.3,0.4-0.6,0.8-0.9,1.2c0.3-0.3,0.6-0.5,1-0.6c-1.1,0.6-1.8,1.6-2.3,2.7c-0.3,0.5-0.5,1.1-0.6,1.7l-0.1,0.7
		c0.4-0.3,0.8-0.5,1.2-0.7c0.6-0.2,1.1-0.6,1.5-1.2c-0.3,0.6-0.8,1.1-1.3,1.4c0,0,0,0,0.1,0l-0.1,0.3c0,0-0.1,0.3-0.3,0.8
		c0.2-0.3,0.4-0.7,0.7-0.9c-0.6,0.6-0.8,1.5-1,2.4c-0.1,0.8-0.2,1.5-0.1,2.2c0,0,0.1,0,0.1-0.1c0.3-0.1,0.5-0.2,0.7-0.3
		c0.4-0.3,0.6-0.8,0.9-1.3c-0.2,0.5-0.3,1-0.7,1.5c-0.1,0.2-0.3,0.3-0.5,0.4c-0.1,0-0.1,0.1-0.2,0.2c0.2,0.7,0.9,3.7,1.6,6.3
		c-0.1-0.7-0.2-1.5-0.1-2.2c0.1,0.9,0.3,1.7,0.5,2.6c0-0.1,0-0.3,0-0.4c0.1,1.1,0.5,2.2,0.6,3.3c0.1-0.4,0.1-0.8,0-1.2
		c0.2,0.6,0.2,1.3,0.1,2c-0.1,0.4-0.1,0.7-0.2,1.1c0.1-0.3,0.2-0.7,0.3-1c0,0.6-0.1,1.2-0.4,1.8c0.1-0.1,0.1-0.2,0.2-0.2
		c0.4-0.5,0.6-1.1,0.8-1.7c-0.1,0.6-0.3,1.3-0.6,1.8c-0.1,0.2-0.2,0.4-0.3,0.6c0.4-0.4,0.7-0.9,0.9-1.4c-0.4,0.8-0.9,1.6-1.6,2.2h0
		c-0.3,0.2-0.6,0.4-0.9,0.5c-0.2,0.1-0.4,0.2-0.7,0.2c-2.4,0.5-3.3,1.1-3.9,2.2c0.2,0,0.4,0,0.6,0c0.3,0,0.5-0.3,0.7-0.5
		c-0.1,0.1-0.2,0.3-0.4,0.5c0.1,0,0.2,0,0.3-0.1c0.3-0.1,0.5-0.4,0.8-0.6c-0.2,0.3-0.3,0.6-0.6,0.8c0.4-0.1,0.9-0.5,1.2-0.9
		c-0.1,0.3-0.2,0.6-0.4,0.8c0.1-0.1,0.3-0.2,0.4-0.2c0.3-0.2,0.5-0.5,0.6-0.9c0,0.4-0.2,0.8-0.4,1.1c0,0-0.1,0.1-0.1,0.1
		c0.3-0.1,0.6-0.4,0.8-0.6c0,0.1-0.1,0.1-0.1,0.2l0,0c1-0.2,2.4-0.7,2.8-1.4c-0.1,0.4-0.5,1.1-1.5,1.5c-0.5,0.2-0.9,0.3-1.1,0.3
		l-0.6,0.7l-1.4,1.5h2.8c0.1,0,0.3-0.1,0.4-0.1c0.4-0.1,0.8-0.3,1-0.7c-0.2,0.3-0.5,0.6-0.8,0.8c0.6-0.1,1.3-0.5,1.8-1
		c-0.2,0.3-0.5,0.5-0.8,0.8c0.3-0.1,0.6-0.3,0.9-0.5c0.2-0.2,0.3-0.3,0.4-0.5c0.1-0.2,0.1-0.4,0.3-0.6c-0.1,0.4-0.2,0.8-0.5,1.2
		c0.2-0.1,0.3-0.4,0.4-0.5c0.1-0.2,0.1-0.3,0.2-0.5c0.1-0.2,0.2-0.3,0.4-0.4c-0.1,0.1-0.3,0.3-0.3,0.4c-0.1,0.2-0.1,0.4-0.1,0.5
		c0,0,0,0.1,0,0.1c0.3-0.3,0.5-0.7,1-0.8c-0.3,0.1-0.4,0.3-0.5,0.5c0.4-0.3,1-0.4,1.4-0.4c0-0.1-0.2-0.3-0.4-0.4
		c0.1,0,0.2,0,0.4,0.1c-0.1-0.1-0.3-0.3-0.5-0.4c1.4,0.1,2,1.5,2.2,2.4h3.1c-0.1-0.6-0.4-0.9-0.6-1.1c-0.5-0.3-1.1-0.4-1.7-0.3
		c0.3-0.1,0.5-0.1,0.8-0.1c-0.3-0.1-0.7-0.1-1-0.1c0.2,0,0.3-0.1,0.5-0.1c-0.2,0-0.4-0.1-0.6-0.1c0.2-0.1,0.3-0.1,0.5-0.1
		c-0.1,0-0.3-0.1-0.4-0.1c0.1-0.1,0.3-0.1,0.4-0.1c-0.1,0-0.2-0.1-0.4-0.1c0.1,0,0.2,0,0.3,0c-0.1,0-0.1-0.1-0.2-0.1
		c0.1,0,0.2,0,0.3-0.1c0,0-0.1-0.1-0.2-0.1c0.1,0,0.1-0.1,0.1-0.1c-0.1-0.3-0.2-0.6-0.2-0.9c0-0.3-0.1-0.5-0.2-0.7
		c-0.1-0.2-0.4-0.4-0.6-0.6c-0.3-0.3-0.6-0.6-0.8-0.9c0.2,0.3,0.4,0.5,0.7,0.7c-0.2-0.3-0.4-0.6-0.6-0.9c0.2,0.3,0.4,0.4,0.6,0.6
		c-0.1-0.2-0.2-0.4-0.3-0.6c0.1,0.1,0.1,0.1,0.2,0.2c-0.1-0.1-0.1-0.3-0.2-0.4c0.1,0.1,0.1,0.2,0.2,0.3c0-0.2-0.1-0.3-0.1-0.5
		c0.1,0.1,0.1,0.2,0.2,0.3c-0.1-0.3-0.2-0.6-0.4-0.9c0.1,0.1,0.3,0.3,0.4,0.4c0-0.2-0.3-0.5-0.4-0.8c0.1,0.2,0.3,0.3,0.4,0.4
		c0-0.2-0.2-0.5-0.3-0.7c0.1,0.1,0.2,0.3,0.4,0.4c-0.1-0.3-0.4-0.7-0.6-1c0.2,0.2,0.4,0.3,0.6,0.5c0.1,0.1,0.1,0.2,0.2,0.2
		c0,0,0,0,0-0.1c-0.3-0.4-0.5-0.7-0.7-0.8c0.2,0,0.4,0.1,0.6,0.2c0-0.3-0.1-0.6-0.1-0.9c0-0.5-0.2-0.9-0.3-1.4
		c-0.1-1-0.1-1.9-0.2-2.9c0.1,1,0.2,1.9,0.5,2.9c0.1,0.3,0.2,0.7,0.3,1c-0.1-1.2-0.3-2.6-0.2-4.1h0c0-0.7-0.2-1.5-0.3-2.2
		c-0.2-0.7-0.4-1.5-0.4-2.2c0.1,0.6,0.4,1.2,0.6,1.9c0.1-0.7,0.1-1.5-0.1-2.2c-0.2-0.9-0.8-1.8-0.6-2.8c-0.1,1,0.6,1.8,0.9,2.7
		c0,0.1,0.1,0.3,0.1,0.4c0-1.1-0.5-2.3-0.6-3.5c0.1,1,0.6,1.9,0.9,2.9c0-0.7-0.1-1.3-0.2-2c0.2,0.5,0.3,1.1,0.4,1.6
		c0.1-0.6,0-1.3,0-1.9c0-1,0.1-2,0.3-2.9c-0.1,1-0.1,1.9,0,2.9c0.1-0.5,0.2-1.1,0.3-1.6c0.1,0.6,0.1,1.1,0.1,1.7
		c0.2-0.8,0.3-1.8,0.3-2.7c0.1,0.4,0.1,0.8,0.1,1.2c0.3-1.1,0.6-2.1,0.7-3.2c0.1,0.8,0,1.7-0.2,2.5c0.4-0.8,0.5-1.8,0.6-2.7
		c0,0.8,0.1,1.5-0.1,2.3c0.2-0.3,0.3-0.7,0.4-1.1c0,0.2,0,0.3-0.1,0.5c0.2-0.8,0.4-1.7,0.6-2.5c-0.1,0.7-0.1,1.4-0.2,2.1
		c0.3-0.7,0.4-1.6,0.6-2.4c-0.1,0.7,0,1.5-0.2,2.2c0.2-0.4,0.4-0.7,0.6-1.1c-0.1,0.3-0.2,0.6-0.3,0.9c0,0,0-0.1,0.1-0.1
		c0.3-0.6,0.5-1.3,0.7-2c0,0.6-0.2,1.3-0.4,1.9c0.3-0.3,0.5-0.7,0.6-1c0,0.2-0.1,0.4-0.2,0.6c0.2-0.3,0.3-0.6,0.4-0.9
		c-0.1,0.5-0.2,1-0.5,1.5c0.3-0.4,0.6-0.9,0.9-1.3c-0.1,0.3-0.2,0.5-0.3,0.7c0.2-0.3,0.4-0.6,0.5-0.9c0,0.3-0.1,0.6-0.2,0.9
		c0,0,0,0,0,0c0.2-0.3,0.4-0.7,0.5-1c-0.1,0.4-0.2,0.8-0.3,1.1c0,0,0,0,0,0.1c0.4-0.4,0.6-1.1,0.7-1.7c0,0.4,0,0.7-0.1,1.1
		c0.2-0.3,0.3-0.7,0.4-1c-0.1,0.3-0.1,0.7-0.2,1.1c0.4-0.6,0.7-1.4,0.8-2.2c0,0.5,0,1-0.1,1.6c0.2-0.5,0.3-1,0.4-1.5
		c0,0.5,0,1.1-0.1,1.6c0.2-0.3,0.3-0.7,0.5-1.1c0,0.3-0.1,0.6-0.1,0.9c0.1-0.2,0.3-0.5,0.4-0.7c0,0.3,0,0.5-0.1,0.8c0,0,0,0,0,0
		c0.1-0.1,0.1-0.2,0.2-0.4c-0.2-0.6-0.4-1.6-0.8-2.4c0.6,1,1.7,3.2,1.9,5.2c0.1-1.3,0.1-2.6-0.3-3.8c0.5,1.3,0.6,2.6,0.5,4
		c0,0.7-0.1,1.3-0.2,2c0,0,0,0.1,0,0.1c0,0,0,0,0,0c0.3-1.5,1-2.9,0.7-4.4c0.2,0.7,0.2,1.5,0,2.3l-0.5,2.2c-0.2,0.7-0.4,1.5-0.6,2.2
		c-0.1,0.4-0.2,0.7-0.3,1.1c0,0.1,0,0.1,0,0.2c0-0.1,0.1-0.2,0.1-0.3c0.6-1.1,0.8-2.4,1.1-3.6c-0.2,1.2-0.3,2.5-0.9,3.7
		c-0.3,0.6-0.4,1.3-0.5,2c0-0.1,0.5-1.3,0.8-1.8c-0.4,1.1-0.8,2.2-0.8,3.3c0,0.5,0.1,1.1,0.1,1.7c0,0.2,0,0.4,0.1,0.6
		c0,0.1,0,0.2,0.1,0.3c0-0.8,0.1-1.6,0.4-2.4c-0.2,0.8-0.2,1.7-0.1,2.5c0,0.4,0.2,0.8,0.3,1.3c0.1-0.5,0.1-1,0.4-1.5
		c-0.1,0.3-0.1,0.7,0,1c0-0.2,0.1-0.4,0.2-0.5c0,0.1,0,0.2,0.1,0.4c0-0.3,0-0.7,0.1-1c0,0.6,0,1.1,0.2,1.6c0,0.1,0.1,0.3,0.2,0.4
		c-0.1-0.5-0.1-1,0.1-1.5c-0.2,0.8,0.1,1.6,0.5,2.2c0.2,0.4,0.5,0.8,0.8,1.1c0.1,0.1,0.3,0.2,0.4,0.3c0.1,0,0.1,0.1,0.2,0.1
		c0,0,0.1,0,0.1,0.1l0,0c0.1,0.1,0.2,0.1,0.3,0.2c0.6,0.5,1.1,0.9,1.7,1.3c-0.4-0.2-0.7-0.4-1.1-0.6c0.1,0.1,0.2,0.3,0.4,0.4
		c1,1,2.2,1.9,2.8,3.2c-0.7-1.2-1.7-1.9-2.7-2.7c0.1,0.1,0.1,0.1,0.1,0.2c0.1,0.2,0.3,0.3,0.4,0.5c0.8,0.8,1.7,1.7,2.4,2.7
		c-0.5-0.6-1.1-1.1-1.6-1.6c0.2,0.3,0.4,0.5,0.6,0.8c0.6,0.9,1.1,1.8,1.5,2.8c-0.4-0.7-0.8-1.4-1.3-2.1c0.2,0.3,0.3,0.6,0.5,0.9
		c0,0,0,0,0,0c0,0,0,0.1,0.1,0.1c0,0,0-0.1,0-0.1c0.1,0.2,0.2,0.4,0.3,0.6c0.3,0.9,0.4,1.8,0.4,2.3c-0.1-0.2-0.1-0.4-0.2-0.7
		c0,0.7-0.1,1.4-0.5,2.1c0.3-0.3,0.6-0.6,0.7-1c-0.1,0.4-0.3,0.7-0.5,1.1c0.2-0.2,0.3-0.3,0.4-0.5c-0.4,0.7-1.1,1.3-1.9,1.6
		c0,0,0,0,0,0c0,0,0,0-0.1,0c-0.1,0-0.3,0.1-0.4,0.1c-2.6,0.5-3.4,1.2-4,2.3c0.4-0.1,0.7-0.3,1.1-0.6c-0.2,0.2-0.4,0.4-0.6,0.6
		c0.1,0,0.2-0.1,0.3-0.1c0.2-0.1,0.4-0.2,0.6-0.3c-0.2,0.2-0.4,0.3-0.5,0.4c0,0,0,0-0.1,0c0.4-0.1,0.7-0.3,1-0.6
		c-0.2,0.2-0.4,0.4-0.6,0.6c0.3-0.1,0.7-0.5,0.9-0.8c-0.1,0.3-0.2,0.5-0.4,0.7c0,0-0.1,0.1-0.1,0.1h0.1c0.1,0,0.1-0.1,0.2-0.1
		c0.2-0.2,0.4-0.4,0.5-0.7c-0.1,0.3-0.2,0.5-0.4,0.8c0.1-0.1,0.2-0.1,0.3-0.2c0.2-0.1,0.4-0.3,0.6-0.5c-0.1,0.2-0.3,0.4-0.5,0.5
		c0.1,0,0.2-0.1,0.3-0.1c0.2-0.1,0.4-0.3,0.5-0.5c-0.1,0.2-0.2,0.4-0.4,0.6c-0.1,0.1-0.1,0.1-0.2,0.1c0.3,0,0.6-0.3,0.9-0.5
		c-0.1,0.2-0.3,0.4-0.5,0.6h0.1l0.6-0.7l0.1,0c0.9-0.2,2.2-0.7,2.7-1.2c-0.2,0.4-0.6,1-1.6,1.4c-0.4,0.1-0.8,0.2-1,0.3l-0.6,0.7v0
		l-1.3,1.4c0.3-0.1,0.7-0.3,1-0.5c-0.2,0.2-0.4,0.4-0.6,0.6c0.2-0.1,0.5-0.2,0.8-0.1c0,0-0.1,0.1-0.2,0.1c0,0,0.1,0,0.1,0
		c0.7-0.2,1.4-0.5,1.9-0.7c0,0-0.4,0.4-1.1,0.7c0,0-0.1,0-0.1,0c0.1,0,0.3-0.1,0.4-0.1c0.3-0.1,0.7-0.2,1-0.4
		c-0.3,0.2-0.6,0.4-0.9,0.5c0,0-0.1,0-0.1,0.1c0.1,0,0.2,0,0.3,0c0.7-0.1,1.5-0.5,1.9-0.9c0,0-0.3,0.6-1,0.9c-0.1,0-0.1,0-0.2,0.1
		h0.1c0.3-0.1,0.7-0.2,0.9-0.4c-0.1,0.1-0.1,0.1-0.2,0.2c0.4-0.2,0.8-0.6,1.1-0.8c0,0-0.3,0.4-0.7,0.7c0,0,0,0-0.1,0.1
		c0,0,0.1,0,0.1,0c0.1,0,0.2-0.1,0.2-0.1c0.3-0.2,0.6-0.3,0.8-0.5c0.2-0.2,0.3-0.5,0.4-0.7c0,0,0,0.5-0.5,1c0.3-0.2,0.5-0.3,0.7-0.6
		c0.5-0.6,1.3-0.7,1.8-0.7c-0.1,0-0.2-0.1-0.5-0.2c-0.3,0-0.7,0.1-0.9,0.1c0,0,0.2-0.2,0.6-0.3c0.2-0.1,0.5,0,0.7,0.1
		c-0.1-0.2-0.3-0.4-0.6-0.5c1.5,0.1,2.1,1.5,2.3,2.4h3.1c-0.1-0.6-0.5-1-0.7-1.2c-0.4-0.2-0.9-0.3-1.4-0.3c0.2,0,0.4,0,0.6-0.1
		c-0.1,0-0.1-0.1-0.2-0.1c-0.2-0.1-0.4-0.1-0.6-0.1c0.2,0,0.3,0,0.5,0c-0.3-0.1-0.5-0.2-0.8-0.2c0.2,0,0.4,0,0.5,0
		c-0.2-0.1-0.5-0.2-0.7-0.2c0.2,0,0.5,0,0.7,0c-0.1-0.1-0.3-0.1-0.4-0.2c0.1,0,0.2,0,0.4,0c-0.1-0.1-0.2-0.1-0.3-0.2
		c0.1,0,0.3,0,0.4,0c-0.1-0.3-0.1-0.6-0.2-0.8c-0.1-0.4-0.1-0.7-0.3-0.9c0,0,0,0,0-0.1c-0.8-0.6-1.5-1.5-1.7-2.5
		c0.2,0.7,0.6,1.2,1.1,1.7c-0.2-0.4-0.4-0.8-0.5-1.3c0.2,0.4,0.4,0.7,0.6,1c-0.1-0.4-0.1-0.7-0.2-1.1c0.1,0.3,0.2,0.5,0.3,0.8
		c0-0.7,0.1-1.4,0.2-1.6c-0.2-0.3-0.5-0.6-0.6-0.7c0.5,0,0.9,0.4,1.1,0.7c0-0.1,0-0.2,0-0.2c0-0.2-0.1-0.4-0.1-0.6
		c-0.1-0.4-0.2-0.8-0.4-1.1c-0.3-0.7-0.8-1.4-1.3-2c0.4,0.5,0.9,1,1.2,1.6c-0.4-1-0.9-2-1.6-2.8c0.6,0.6,1.1,1.3,1.5,2.1
		c-0.4-0.9-0.8-1.9-1.5-2.9c0,0-0.6-1.1-1-2.9c0.1,0.6,0.2,1.3,0.4,1.9c-0.3-0.6-0.5-1.3-0.6-2c0,0.5,0.1,0.9,0.2,1.3
		c-0.2-0.8-0.3-1.6-0.4-2.4c0-0.2-0.1-0.4-0.1-0.7c0,0.3-0.1,0.9-0.1,1c0,0,0,0.8,0,1.3c-0.2-0.8-0.2-2.9-0.3-3
		c-0.1,0.7-0.2,1.5-0.1,2.2c-0.1-0.8-0.1-1.7-0.1-2.5c-0.1,0.7-0.3,1.4-0.3,2.1c0-0.9,0.1-1.8,0.3-2.7c0.1-0.4,0.1-0.9,0.2-1.3
		c0-0.1,0-0.3,0-0.4c-0.1,0.5-0.3,1-0.5,1.4c0.2-0.5,0.3-1.1,0.4-1.7l0.2-0.9l0.1-0.4c-0.3,0.6-0.7,1.1-1,1.6c0.4-0.7,0.8-1.3,1.1-2
		c0.1-0.2,0.1-0.3,0.2-0.5c0,0,0,0,0-0.1c0-0.1,0-0.1,0-0.2c-0.1,0.1-0.1,0.3-0.2,0.4c-0.3,0.5-0.6,1.1-1,1.5c0.3-0.5,0.6-1,0.8-1.6
		c0.1-0.3,0.2-0.6,0.3-0.8c0.1-0.2,0.1-0.4,0.2-0.6c-0.2,0.4-0.3,0.8-0.5,1.2c0.2-0.6,0.4-1.2,0.6-1.8c-0.1,0.2-0.2,0.4-0.3,0.6
		c0.1-0.3,0.2-0.6,0.3-0.9c0-0.1,0-0.1,0-0.2c0,0.1-0.1,0.2-0.1,0.2c-0.4,0.9-0.9,1.7-1.1,2.7c0.1-1,0.6-1.8,0.9-2.7
		c0.2-0.5,0.3-1,0.4-1.5c-0.3,0.6-0.6,1.1-0.9,1.6c0.5-0.8,0.9-1.6,1.1-2.5c0-0.2,0.1-0.3,0.1-0.5c-0.2,0.6-0.6,1.1-1.1,1.4
		c0.4-0.3,0.6-0.7,0.8-1.2c-0.1,0.1-0.1,0.2-0.2,0.3c0.3-0.4,0.3-0.9,0.5-1.4c-0.1,0.2-0.2,0.5-0.4,0.7c0.2-0.4,0.3-0.7,0.5-1.1
		c0-0.1,0.1-0.2,0.1-0.2c0.1-0.2,0.1-0.4,0.2-0.6c-0.1,0.2-0.2,0.4-0.3,0.6c0.1-0.2,0.1-0.4,0.2-0.7c-0.2,0.4-0.5,0.8-0.7,1.1
		c0.5-0.9,1-1.9,1.1-3c-0.1,0.3-0.2,0.6-0.3,0.9c0.2-0.6,0.3-1.2,0.4-1.8c0,0,0,0,0,0l0,0c0,0,0,0,0-0.1c-0.1-1-0.2-2.3-0.2-2.7
		c0.6,1.1,0.8,2.4,0.7,3.8c0.8-2.1,0-5-0.9-6.7l0,0.2c0.1,0.5,0.2,1.1,0.2,1.6c-0.1-0.5-0.3-1-0.5-1.5l-0.3-0.7
		c0.1,0.4,0.1,0.9,0.1,1.3c-0.1-0.6-0.2-1.1-0.4-1.6c0-0.1-0.1-0.2-0.1-0.3c0,0.4-0.1,0.8-0.1,1.2c-0.1-0.8-0.1-1.6-0.2-2.4
		c-0.1,0.5-0.2,1.1-0.4,1.5c0.2-0.7,0.2-1.4,0.1-2.1c0-0.2-0.1-0.4-0.1-0.6c0,0,0,0,0,0l0,0c0-0.1-0.1-0.3-0.1-0.4c0,0,0-0.1,0-0.1
		c-0.1,0.8-0.2,1.6-0.4,2.3c0.2-0.8,0.2-1.7,0.2-2.5c0-0.4-0.1-0.8-0.1-1.2c0,0,0-0.1,0-0.1c0,0.1,0,0.2,0,0.3
		c-0.1,0.9-0.3,1.8-0.5,2.7c0.1-0.9,0.2-1.8,0.2-2.8c0-0.3,0-0.6,0-0.9c-0.1,0.6-0.3,1.2-0.5,1.7c0.1-0.7,0.2-1.4,0.3-2.1
		c0-0.4,0.1-0.7,0.1-1c0-0.1,0-0.2,0-0.2c-0.1,0.3-0.2,0.6-0.3,0.8c0.1-0.5,0.1-0.9,0.2-1.4l0,0c0-0.1,0-0.2,0-0.4c0,0,0,0,0,0
		s0,0,0,0c0-0.2,0-0.5,0-0.7c-0.2,1.4-0.7,2.7-1.2,4c0.4-1.6,0.8-3.3,0.9-4.9c-0.3,1.7-0.9,3.4-1.9,4.9c1.1-1.9,1.6-4.1,1.7-6.3
		c-0.3,0.9-0.7,1.7-1.3,2.4c0.8-1.1,1-2.5,1.2-3.8c-0.2,0.4-0.4,0.8-0.6,1.1c0.3-0.7,0.5-1.5,0.6-2.2c-0.3,0.5-0.6,0.9-1.1,1.2
		c0.5-0.5,0.7-1.1,0.9-1.7c-0.2,0.1-0.3,0.3-0.3,0.3c0.3-0.5,0.6-1.5,0.8-2.6c-0.2,0.5-0.5,0.9-0.8,1.3c0.2-0.6,0.5-1.1,0.7-1.7
		c0.1-0.3,0.2-0.6,0.2-1c-0.3,0.6-0.5,1.1-0.9,1.6c0.3-0.6,0.5-1.2,0.7-1.9c0.1-0.3,0.2-0.6,0.2-1l0,0c-0.3,0.4-0.7,0.9-0.7,0.9
		c0.9-1.7,2.3-5.6,2.9-7.7c2.3-8.1,2-10.1,1.7-12.1l0-0.2c-0.1-0.4-0.1-0.9-0.1-1.3c0,0.6,0,1.2,0,1.2c-0.4-3.3,0.5-4.2,0.2-4.2
		c-0.3,0.1-0.4,1.1-0.4,1.1c0.1-2.1,1.7-2.3,1.4-2.3c-0.2,0-0.8,0.2-0.8,0.2c2.5-0.8,2.5-1.4,2.6-3.3c0.1-1.5-0.5-1.8-0.8-1.9
		c0.3,0.3,0.5,0.7,0.6,1.1c-0.1-0.6-0.7-1.1-1.2-1.3c-0.3-0.1-0.6-0.2-0.9-0.3c0.3,0.1,0.5,0.3,0.6,0.5c-0.6-0.8-1.8-0.4-2.6-0.9v0
		c-0.9-0.4-1.4-1.2-1.5-1.2l0,0c0.2,0.2,0.3,0.3,0.5,0.4c0.1-0.1,0.1-0.4,0.1-0.6c0,0.2,0.2,0.4,0.1,0.7c0-0.1,0.1-0.1,0.1-0.2
		c0,0,0,0,0,0.1c0-0.1,0-0.2,0.1-0.3c0-0.2,0-0.4,0-0.7c0.1,0.2,0.1,0.4,0.2,0.7c0,0.1,0,0.2,0,0.2c0,0,0,0,0,0c0,0,0,0.1,0,0.1
		c0,0,0,0,0,0c0-0.2,0.1-0.3,0.1-0.5c0-0.3,0-0.6,0-1c0.1,0.3,0.2,0.6,0.2,1c0,0.2,0,0.3,0,0.5c0,0,0,0.1,0,0.2
		c0.1-0.2,0.1-0.4,0.1-0.5c0,0.1,0,0.3,0,0.4c0.1-0.3,0.1-0.7,0.1-1.1c0.1,0.4,0.2,0.8,0.1,1.3c0.1-0.2,0.1-0.4,0.1-0.5
		c0-0.3,0-0.6-0.1-1c0.1,0.3,0.2,0.6,0.2,1c0,0.2,0,0.3,0,0.5c0,0.1,0,0.2-0.1,0.2c0,0,0,0,0,0v0c0,0,0,0,0,0c0.2-0.6,0.6-2.2-0.8-3
		c-0.9-0.5-1.7-0.4-2.3-0.1c0.2,0,0.4,0,0.5-0.1c-0.2,0.1-0.5,0.1-0.8,0.3c0.2-0.1,0.4-0.1,0.6-0.1c-0.3,0-0.6,0.2-0.8,0.4
		c0.3-0.1,0.6-0.3,0.9-0.2c-0.4-0.1-0.6,0.2-0.9,0.4c0,0.1,0.1,0.1,0.1,0.2c0,0-2.7-1.4-5.1-0.2c-2.3,1.2-4.6,1.9-6.9,1.9
		c-0.6,0-1,0.1-1.2,0.3c0,0,0,0,0,0c-0.1,0.3-0.1,1.1-0.1,1c0,0.1,0,0.2,0,0.3c0,0.1,0,0.3,0,0.5c0,0,0,0.3,0,0.6c0,0.1,0,0.2,0,0.3
		c0,0.1,0,0.1,0,0.2c0,0.1,0,0.2-0.1,0.2c0,0.1,0,0.2,0,0.4c0.1,0.3,0.2,0.7,0.4,1.1c0.1,0.2,0.2,0.4,0.3,0.6c0,0,0,0.1,0,0.1
		c0.1,0.2,0.3,0.5,0.4,0.5c0,0,0,0,0,0c0.1,0.1,0.1,0.1,0.1,0.2c0,0,0,0,0,0c0.1,0.1,0.1,0,0.3-0.4c0,0,0,0,0,0
		c0.1-0.1,0.4-0.2,0.7-0.2c1.2-0.2,4.4,0.7,5.8-0.3c0,0-0.6,0.7-2.4,0.7c-1.8,0-2.5,1-3.4,0.7c-0.9-0.3-0.6,0.1-0.7,0.4
		c-0.1,0.2,0.2,0.4,0.1,0.7c-0.1,0.3-0.7,1.6,2.3,1.7c0.1,0,0.2,0,0.4,0c0.2,0,0.4,0,0.5,0c0.5,0,0.9,0,1.4,0.1
		c0.2,0,0.5,0.1,0.7,0.2c-0.2-0.1-0.4-0.1-0.6-0.2c-0.5-0.1-0.9-0.1-1.4,0c0,0,0,0,0.1,0.1c0,0,0,0,0,0c0.1,0.1,0.2,0.3,0.2,0.5
		c0.1,0.3,0.1,0.6,0.1,0.9c0,0.4,0,0.7-0.1,1.1c0,0,0,0,0,0c-0.1,0.2-0.1,0.5-0.2,0.7c-0.2,0.5-0.4,1-0.7,1.5l0.3-0.2l0.3-0.2l0,0
		c1.6-0.9,2.8-1.4,2.8-1.4c-0.4,0.3-0.9,0.6-1.3,0.9l-0.3,0.2c-0.7,0.5-1.2,0.9-1.9,1.5c-3.6,2.8-6.1,5.3-6.1,5.3
		c0.2-0.3,0.4-0.7,0.6-1c0,0,0,0,0,0c-0.3,0.2-0.5,0.3-0.7,0.5c0.3-0.4,0.6-0.7,0.9-1c0,0,0,0,0,0c-0.3,0.2-0.6,0.3-0.9,0.5
		c0.3-0.3,0.7-0.5,0.9-0.8c0,0,0,0,0,0c-0.3,0.2-0.6,0.4-1,0.6c0.1-0.1,0.1-0.1,0.2-0.2c-0.1,0.1-0.3,0.2-0.4,0.3
		c0.3-0.2,0.6-0.5,0.9-0.8c-0.2,0.1-0.4,0.3-0.5,0.4c0.1-0.1,0.3-0.3,0.4-0.4c-0.2,0.2-0.4,0.3-0.6,0.5c0.2-0.2,0.3-0.4,0.5-0.6
		c0.1-0.1,0.1-0.1,0.2-0.2c-0.1,0.1-0.3,0.2-0.4,0.3c0.1-0.1,0.2-0.2,0.3-0.3c-0.1,0-0.1,0.1-0.2,0.1c-0.1,0.1-0.3,0.2-0.4,0.3
		c0.1-0.1,0.2-0.3,0.3-0.4c0,0,0.1-0.1,0.1-0.1c-0.2,0.1-0.4,0.2-0.7,0.3c0.2-0.2,0.3-0.4,0.5-0.5c0,0,0,0-0.1,0l-0.8,0.2l0.5-0.3
		c0,0,0,0-0.1,0c-0.3,0.1-0.7,0.2-1,0.3c0.2-0.1,0.4-0.2,0.7-0.3c0,0,0,0,0,0c0,0,0,0,0,0c-0.5,0.2-0.9,0.2-1.4,0.3
		c0.2-0.1,0.4-0.1,0.6-0.2c-0.1,0-0.3,0.1-0.4,0.1c0.2-0.1,0.4-0.2,0.6-0.3c0,0-0.1,0-0.1,0c-0.3,0.1-0.6,0.2-0.9,0.2
		c0.2-0.1,0.4-0.2,0.6-0.3c-0.1,0-0.2,0-0.2,0.1c-0.3,0.1-0.5,0.2-0.8,0.3c0.2-0.1,0.4-0.2,0.6-0.3c-0.1,0-0.3,0.1-0.4,0.1
		c0.1-0.1,0.2-0.1,0.3-0.2c-0.3,0.1-0.7,0.3-1,0.4c0.3-0.2,0.6-0.3,0.9-0.5c-0.2,0.1-0.4,0.2-0.7,0.3c0.2-0.1,0.4-0.2,0.5-0.3
		l-0.9,0.3l0.7-0.4c-0.2,0-0.3,0.1-0.5,0.1c0.2-0.1,0.4-0.2,0.6-0.3v0c-0.3,0.1-0.6,0.2-1,0.3c0.1-0.1,0.6-0.4,0.7-0.5
		c-0.3,0-0.6,0.1-0.9,0.2c0.2-0.1,0.3-0.2,0.5-0.3l-0.6,0.1l0.5-0.2c-0.3,0-0.5,0.1-0.8,0.1c0.2-0.1,0.3-0.1,0.5-0.2
		c-0.2,0-0.3,0-0.5,0.1c0.1-0.1,0.2-0.1,0.4-0.2c-0.2,0-0.4,0-0.5,0.1c0.1-0.1,0.2-0.1,0.3-0.2c-0.1,0-0.3,0-0.4,0.1
		c0.3-0.1,0.5-0.2,0.7-0.3c0,0,0,0,0,0c-0.3,0-0.6,0.1-0.9,0.1c0.2-0.1,0.4-0.2,0.6-0.2c0,0,0,0,0,0c-0.2,0-0.5,0-0.8,0.1
		c0.1,0,0.1-0.1,0.2-0.1c0,0,0,0,0,0c-0.2,0-0.3,0-0.4-0.1c-0.3-0.1-0.5-0.1-0.8-0.1c0.2-0.1,0.3-0.1,0.5-0.1c0,0,0,0,0,0
		c-0.3-0.1-0.6-0.1-0.9-0.1c0.2-0.1,0.4-0.1,0.6-0.1c-0.4-0.1-0.8-0.4-1.3-0.6c0.2,0.1,0.4,0.2,0.7,0.2c0,0-0.1,0-0.1-0.1
		c-0.1,0-0.2-0.1-0.4-0.1c-0.5-0.2-1-0.3-1.5-0.4c0.2,0,0.5,0,0.7,0.1c-0.3-0.2-0.7-0.4-1-0.6c0.4,0.2,0.7,0.4,1.1,0.5
		c-0.1-0.1-0.3-0.2-0.4-0.3c-0.5-0.3-1.1-0.5-1.7-0.6c0.4,0,0.8,0.1,1.2,0.3c-2.1-1-4-2.1-5.4-3.6c0.3,0.5,0.7,0.9,1.1,1.3
		c-0.5-0.4-0.9-0.9-1.3-1.4c-0.3-0.3-0.5-0.6-0.7-1c0.3,0.7,0.6,1.4,0.9,2c-1-1.9-1.9-4-2.2-6.1c-0.1-0.3-0.1-0.5-0.2-0.8
		c-0.4-2-0.8-4.2-1.3-5.8c0.1,0.5,0.1,1,0,1.5c0.1-0.5,0-1.1-0.1-1.6c0,0.3-0.1,0.7-0.1,1c0.1-0.5,0.1-1,0-1.5
		c0,0.3-0.1,0.6-0.2,0.9c0.1-0.4,0.1-0.7,0.1-1.1c0,0.2-0.1,0.3-0.1,0.5c0.1-0.4,0.1-0.8-0.1-1.2c0,0.3,0,0.6-0.1,0.8
		c0.1-0.5,0-1-0.2-1.4c-0.3-0.5-0.6-0.8-0.9-0.9c-0.5-0.1-0.9-0.1-1,0c-0.2,0.1-0.2,0.4-0.2,0.6c0,0.1,0,0.3-0.1,0.4
		c0.1,0,0.4,0,0.5-0.1c0.3,0,0.2-0.4,0.4-0.6c-0.1,0.1-0.1,0.3-0.1,0.4c0,0.1-0.1,0.4-0.2,0.5c-0.1,0.1-0.2,0.1-0.2,0.2
		c0.4,0,0.7-0.1,0.9-0.1c-0.1,0.1-0.2,0.2-0.4,0.3c0.2,0.5,0.4,1,0.4,1.5c0-0.2,0-0.3-0.1-0.5c0,0.1,0,0.1,0,0.2
		c0,0.2,0,0.4-0.1,0.6c0-0.2,0-0.4,0-0.6c0,0,0,0,0-0.1c0,0,0,0,0,0c0,0.2-0.1,0.4-0.2,0.6c0.1-0.1,0.1-0.3,0.1-0.4
		c0,0,0,0.1-0.1,0.1c-0.2,0.2-0.5,0.3-0.7,0.3c0.5,0.1,1,0.1,1.5,0c-0.7,0.2-1.5,0.2-2.2-0.1c0,0,0,0,0,0c-0.2-0.1-0.3-0.1-0.5-0.2
		l0,0c-0.2-0.1-0.5-0.3-0.8-0.5c-0.4-0.3-0.8-0.4-1.2-0.2c-0.3,0.2-0.5,0.5-0.6,0.7c0.4,0,0.8,0.2,1.1-0.1c-0.1,0.3-0.4,0.4-0.7,0.5
		c0.3,0,0.5,0,0.7,0c0,0-0.1,0.1-0.1,0.1c0.1,0.2,0.2,0.5,0.3,0.8c0,0,0.1,0,0.1,0c0,0,0,0.1-0.1,0.1c0,0,0.1,0,0.1-0.1
		c0,0.1-0.1,0.1-0.1,0.2c0,0,0,0,0,0c0.1-0.1,0.1-0.1,0.2-0.2c-0.1,0.1-0.1,0.2-0.2,0.2c0.1-0.1,0.2-0.1,0.2-0.2
		c0,0.1-0.1,0.2-0.1,0.2c0.1-0.1,0.2-0.2,0.2-0.2c-0.1,0.1-0.1,0.2-0.2,0.3c0.1-0.1,0.2-0.2,0.3-0.3c-0.1,0.1-0.2,0.3-0.3,0.4
		c0.2-0.1,0.3-0.2,0.5-0.3c-0.1,0.1-0.3,0.3-0.4,0.4c0.1-0.1,0.2-0.1,0.3-0.2c-0.3,0.3-0.7,0.6-1.1,0.4l0,0c-0.2,0-0.3-0.1-0.5-0.2
		c-0.5-0.2-0.8-0.3-0.9-0.1c-0.4,0.7-0.4,1.2-0.2,1.6c0.2-0.1,0.5-0.3,0.6-0.4c0.2-0.2,0-0.5,0.2-0.8c-0.1,0.3,0.2,0.5,0.1,0.9
		c0,0,0,0.1-0.1,0.1c0.2-0.1,0.3-0.3,0.3-0.3c0,0.1,0,0.2,0,0.3c0,0,0,0,0,0c0.1-0.1,0.2-0.4,0.3-0.6c-0.1,0.2,0,0.4-0.1,0.6
		c0,0,0,0,0,0c0.1-0.2,0.2-0.4,0.3-0.6c0,0.1,0,0.2,0,0.3c0,0,0,0,0,0c-0.1,0.1,0,0.3,0,0.4c0-0.3,0.2-0.6,0.2-0.8
		c0,0.3-0.1,0.7-0.1,1c0-0.1,0-0.3,0.1-0.5c0,0.2,0,0.4,0,0.6c0,0,0,0,0,0c0-0.1,0-0.3,0.1-0.4c0,0.2,0,0.3,0,0.5
		c0.1-0.1,0-0.4,0-0.6c0,0.2,0.1,0.4,0.1,0.6c0,0,0,0.1,0,0.1c0-0.2,0-0.4,0.1-0.6c-0.1,0.3,0,0.5,0,0.8c0,0,0,0,0,0
		c0-0.3,0.2-0.5,0.1-0.8c0.1,0.3-0.1,0.7,0,1c0,0,0,0,0,0c0-0.2,0.1-0.5,0.1-0.7c0,0.3-0.1,0.5,0,0.7c0,0,0,0,0,0
		c0-0.2,0.1-0.3,0.2-0.5c0,0.2-0.1,0.3-0.1,0.5c0,0.2,0.1,0.3,0.1,0.5c0,0,0,0,0,0c0-0.2,0-0.4,0.1-0.6c-0.1,0.3-0.1,0.6,0,0.8
		c0-0.3,0.1-0.5,0.2-0.8c-0.1,0.4-0.1,0.8-0.1,1.1c0,0,0,0,0,0c0.3-1.6,1.3-1.9,1.3-1.9c-1,0.5-1,2.5-1,3.1c0.1,0.4,0.1,0.8,0.2,1.3
		c0.4,2.3,0.9,5.7,2,6.5c0.2,0.1,0.4,0.2,0.6,0.2c0.2,0,0.3-0.2,0.4-0.3c0,0.2-0.2,0.4-0.2,0.5c0.1,0.1,0.7,0.7,1.6,1.7
		c-0.1-0.2-0.3-0.3-0.4-0.5c0.2,0.2,0.3,0.3,0.5,0.5c-0.3-0.5-0.6-0.9-0.7-1.5c0.2,1,1.1,1.6,1.6,2.5c0-0.4,0.1-0.8,0.3-1
		c0,0-0.1,0.2-0.1,0.6c0,0.3,0.1,0.7,0.3,1.1c0-0.3,0.1-0.7,0.2-0.9c0,0-0.1,0.6,0.2,1.4c0.1,0.1,0.1,0.1,0.2,0.2
		c-0.1-0.5-0.1-1,0-1.4c0,0.6,0.1,1.2,0.4,1.8c0,0,0.1,0.1,0.1,0.1c-0.1-0.6,0.1-1.2,0.2-1.6l0.1,0.8c0.1,1.3,1.1,2,1.4,2.7
		c-0.1-0.2-0.2-0.5-0.3-0.7c-0.2-0.3-0.3-0.6-0.5-1c-0.1-0.3-0.2-0.7-0.1-1.1c-0.2,0.3,0,0.7,0.1,1c0.2,0.3,0.3,0.6,0.5,1
		c0.2,0.5,0.5,1,0.7,1.5c0-0.2-0.1-0.3-0.1-0.5c0,0,0.2,0.2,0.3,0.6c0.1,0.2,0.2,0.5,0.2,0.8c0,0,0,0,0,0c0-0.3-0.1-0.7-0.1-1
		c-0.1-0.7-0.2-1.4-0.7-1.8c0.8,0.6,0.8,1.7,1,2.6c0-0.4,0-0.7,0.1-1.1c0,0.4,0,0.8,0,1.2c0,0,0,0.1,0,0.1c0,0,0,0,0,0.1
		c0-0.1,0-0.3,0-0.4c0,0.2,0.1,0.4,0.2,0.6c0,0.1,0.1,0.1,0.1,0.2c0.1,0.1,0.1,0.2,0.2,0.3c0-0.1,0-0.1,0-0.2c0.1,0.4,0.3,0.7,0.5,1
		c-0.2-0.5-0.4-0.9-0.4-1.4c0.1,0.4,0.2,0.7,0.4,1.1c-0.2-0.6-0.3-1.2-0.3-1.9c-0.1,1.2,0.6,2.2,1.2,3.2c-0.1-0.2-0.3-0.5-0.4-0.7
		c-0.2-0.6-0.1-1.2,0-1.7c-0.1,0.6-0.2,1.2,0.1,1.7c0.1,0.3,0.3,0.5,0.5,0.7c0,0,0.1,0.1,0.1,0.1c0-0.1,0-0.2,0-0.2
		c0.1-0.6,0.3-1.3-0.1-1.8c0.4,0.5,0.2,1.2,0.2,1.8c0,0.5,0.3,1,0.6,1.4c0,0,0.1,0.1,0.2,0.1c-0.2-0.4-0.3-0.8-0.4-1.1
		c0.2,0.5,0.4,0.9,0.7,1.3c0.2,0.1,0.3,0.3,0.5,0.4c-0.2-0.3-0.4-0.7-0.6-1c0.4,0.6,0.8,1.2,1.4,1.5c-0.1-0.1-0.1-0.1-0.2-0.2
		c-0.7-0.5-1.2-1.3-1.4-2.2c0.3,0.8,0.7,1.6,1.4,2.1c0.5,0.4,1.1,0.7,1.6,1.2c0.1,0.1,0.3,0.2,0.4,0.3c-0.1-0.2-0.2-0.3-0.3-0.5
		c-0.3-0.3-0.7-0.6-1-1c-0.7-0.6-1.4-1.3-1.8-2.1c0.4,0.8,1.2,1.4,1.9,2c0.4,0.3,0.7,0.6,1.1,0.9c0.1,0.1,0.1,0.2,0.2,0.2
		c-0.2-0.4-0.5-0.7-0.7-1.1c0.6,0.6,1.1,1.3,1.3,2.2c0,0,0,0,0,0.1c-0.1-0.8-0.5-1.6-1-2.2c0.6,0.6,1.2,1.5,1.3,2.4
		c0-0.8-0.3-1.7-0.8-2.4c0.4,0.5,0.6,1,0.8,1.6c0.1,0.5,0.2,0.9,0.1,1.4c0,0,0,0,0,0c0,0,0,0,0,0c0.1-0.2,0.1-0.4,0.2-0.7
		c0.1-0.5,0-1.1-0.1-1.6c0.2,0.5,0.3,1,0.3,1.6c0,0.3-0.1,0.5-0.1,0.8c-0.1,0.1-0.1,0.3-0.2,0.5c0.2-0.1,0.4-0.2,0.5-0.3
		c1.1-0.7,2-1.6,2.9-2.5c-0.7,1.1-1.7,2-2.7,2.8c-1,0.8-2.2,1.4-3.4,1.9c-1.2,0.5-2.5,0.8-3.8,1c-0.3,0-0.5,0.1-0.8,0.1l-0.1,0
		c-0.1,0-0.2,0-0.4,0c0,0,0,0,0,0c-0.9,0.1-1.8,0-2.6,0c0.5,0,1-0.1,1.5-0.1c-0.1,0-0.2,0-0.3,0c-0.1,0-0.1,0-0.2,0
		c-0.3,0-0.6,0-0.8,0c0.1,0,0.2,0,0.2,0c-0.7-0.1-1.4-0.2-2.1-0.2c0.8-0.1,1.7,0,2.5,0c0,0,0,0-0.1,0c-0.1,0-0.3,0-0.4-0.1l-1-0.1
		l0.8,0c-0.7-0.2-1.5-0.3-2.2-0.3c0.8,0,1.5,0,2.3,0.1c0,0,0,0-0.1,0c-0.1,0-0.1-0.1-0.2-0.1c-0.1,0-0.3-0.1-0.5-0.1l-1-0.1l0.9-0.1
		c-0.5-0.2-1.1-0.2-1.7-0.2c0.5-0.1,1.1-0.1,1.7,0c0,0,0,0-0.1-0.1c-0.1,0,0,0,0,0c0,0,0,0,0,0v0c-0.5-0.1-1.1-0.1-1.7-0.2
		c0.4,0,0.8-0.1,1.1-0.1c-0.4-0.2-0.9-0.2-1.3-0.2c0.1,0,0.3,0,0.4,0l-0.3,0l0.7-0.1c-0.1,0-0.3,0-0.4,0c0.1,0,0.2,0,0.4-0.1
		l-0.7-0.1l0.6-0.1c0.1,0,0.2,0,0.3,0c-0.2-0.1-0.5-0.1-0.8-0.2c0.1,0,0.3,0,0.4,0l-0.6-0.1l0.7-0.1c-0.1-0.1-0.4-0.1-0.6-0.2
		c0.2,0,0.3-0.1,0.5-0.1c0,0,0,0,0,0c-0.2-0.1-0.4-0.1-0.5-0.1c0.1,0,0.3,0,0.4,0c0,0,0,0,0,0c-0.2,0-0.3-0.1-0.4-0.1
		c0.1,0,0.1-0.1,0.2-0.1c-0.1-0.1-0.3-0.1-0.5-0.1c0.1,0,0.3-0.1,0.4-0.1c0,0,0,0,0,0c-0.2,0-0.3-0.1-0.5-0.1c0.1,0,0.1-0.1,0.2-0.1
		c-0.1,0-0.2-0.1-0.3-0.1c0.1,0,0.2-0.1,0.3-0.1c0,0,0,0,0,0l-0.4,0c0,0,0.2-0.1,0.1-0.2c-0.1-0.1-2.2-3.3-2.8-3.5
		c0,0,0.2,0.1,0.4,0.2c0,0-0.7-1.2-1.5-1.1c0,0,0.2-0.1,0.4-0.1c0,0-0.8-0.3-1-0.1c-0.1,0.1-0.2,0.2-0.3,0.4
		c0.1-0.1,0.3-0.2,0.5-0.3c-0.2,0.1-0.4,0.3-0.5,0.4c-0.1,0.1-0.1,0.3-0.2,0.4c0.2-0.3,0.5-0.5,0.8-0.6c-0.3,0.2-0.6,0.4-0.7,0.7
		c0.1-0.1,0.2-0.1,0.2-0.2c-0.1,0.1-0.1,0.3-0.2,0.4c0.1-0.3,0.4-0.4,0.7-0.6c-0.2,0.1-0.4,0.3-0.5,0.6c0,0,0.1-0.1,0.1-0.1
		c-0.1,0.1-0.1,0.2-0.1,0.4c0,0,0,0,0,0c0.1-0.2,0.3-0.4,0.5-0.5c-0.2,0.2-0.4,0.4-0.4,0.6c0,0,0,0,0,0c0.1-0.1,0.2-0.2,0.3-0.3
		c-0.1,0.1-0.2,0.3-0.2,0.4c0.2,0.2,0.3,0.3,0.4,0.3c-0.2,0-0.6,0-1.1-0.5c-0.2-0.1-0.4-0.1-0.6-0.1c0.1-0.1,0.2-0.1,0.3-0.1
		c-0.2-0.1-0.4-0.1-0.6-0.1c0.1-0.1,0.2-0.1,0.4-0.1c-0.1,0-0.3,0-0.4,0c0.1,0,0.2-0.1,0.3-0.1c0,0-0.3-0.1-0.4-0.1
		c0.1-0.1,0.2-0.1,0.3-0.1c-0.1-0.1-0.3-0.1-0.5-0.1c0.1-0.1,0.2-0.1,0.4-0.2c0,0,0-0.1,0-0.1c0-0.1-0.1-0.1-0.2-0.1
		c-0.2,0-0.5,0-0.7,0.1c0.2-0.1,0.4-0.2,0.7-0.2c0,0,0.1,0,0.1,0c-0.1-0.1-0.2-0.2-0.3-0.2c-0.6,0-1.4,0.7-1.5,0.9
		c-0.1,0.3-0.2,1.6,0,2.1c0.1,0.2,0.1,0.2,0.3,0.1c0,0,0.2-0.1,0.3-0.1c0,0,0,0,0,0l-0.3,0l0.3-0.1c0.1,0,0.1-0.1,0.2-0.1
		c0,0,0,0,0,0c-0.1,0-0.2,0-0.4,0c0.1-0.1,0.3-0.2,0.4-0.3c0-0.1-0.1-0.1-0.2-0.2c0,0,0,0,0,0c0.1,0,0.7,0.2,0.9,1
		c0,0.1,0,0.2,0,0.3c0,0.1,0,0.2,0,0.2c0,0.5-0.2,1.1-0.4,1.4c0,0,0-0.2,0.1-0.5c-0.1,0.2-0.3,0.4-0.4,0.6c0.1-0.3,0.2-0.6,0.3-0.9
		c-0.1,0.1-0.1,0.1-0.2,0.2c-0.1,0.2-0.3,0.5-0.5,0.7c0.1-0.2,0.2-0.3,0.2-0.5c0,0,0,0-0.1,0c-0.2,0.2-0.4,0.4-0.6,0.6
		c0.1-0.2,0.2-0.3,0.3-0.5c-0.1,0-0.1,0-0.2,0c0,0,0,0,0,0c-0.2,0.1-0.3,0.3-0.4,0.5c0.1-0.2,0.1-0.3,0.1-0.5c0,0-0.1,0-0.1,0
		c-0.1,0.1-0.2,0.3-0.3,0.4c0-0.1,0-0.2,0-0.3c-0.2,0.1-0.4,0.2-0.4,0.4C229.5,429.3,229.4,429.6,229.3,429.8L229.3,429.8z
		 M231.1,425.9C231.1,425.9,231.1,425.9,231.1,425.9C231.1,425.9,231.1,425.9,231.1,425.9C231.1,425.9,231.1,425.9,231.1,425.9
		C231.1,425.9,231.1,425.9,231.1,425.9L231.1,425.9z M238.3,411c1.6-2.3,0.9-5.8,0.7-6.7c0-0.1,0-0.1-0.1-0.2c0,0,0,0.1,0.1,0.2
		C240.4,409.3,238.3,411,238.3,411L238.3,411z M276,406.7c0,0,0.9-1,0.1-2.1C276.1,404.6,277.2,405.6,276,406.7L276,406.7z
		 M275.8,405.6c-0.1-0.8-0.8-0.5-0.8-0.5c0.1-0.1,0.9-0.4,0.9,0.5c0,0.5-0.2,0.7-0.4,0.8l0,0l0,0c-0.2,0.1-0.5,0.1-0.5,0.1
		s0.7-0.2,0.5-0.9c0,0,0.1,0.3,0.1,0.5C275.8,406.1,275.9,405.9,275.8,405.6L275.8,405.6z M273.9,403.8c0.2-0.5,0.7-0.8,1.2-0.9
		c0.5-0.1,1-0.1,1.4,0.1c-2.6-0.1-2.4,1.9-2.4,1.9c0.2-0.7,1-0.7,1-0.7c-1.2,0.1-0.9,2.3-0.9,2.3c-0.2-0.4-0.3-0.9-0.4-1.3
		C273.7,404.8,273.7,404.2,273.9,403.8L273.9,403.8z M267.8,401.6c0,0.1-0.1,0.1-0.1,0.1c-0.1,0-0.1-0.1-0.1-0.1
		c0-0.1,0.1-0.1,0.1-0.1C267.7,401.4,267.8,401.5,267.8,401.6L267.8,401.6z M268,401.9C268,401.9,268,402,268,401.9
		c-0.1,0.1-0.1,0-0.1,0C267.9,401.9,268,401.9,268,401.9C268,401.9,268,401.9,268,401.9L268,401.9z M266,402.6c-0.1,0-0.1,0-0.2,0
		c0,0-0.1,0-0.1-0.1c0-0.1,0-0.1,0-0.1c0.1-0.1,0.2-0.2,0.2-0.2c0.2-0.1,0.3-0.3,0.5-0.5c0.2-0.2,0.4-0.4,0.6-0.6
		c-0.1,0.1-0.2,0.3-0.2,0.5c0,0.5,0.4,0.9,0.9,0.9c0.5,0,0.9-0.4,0.9-0.9c0-0.2-0.1-0.5-0.3-0.6c0.1,0.1,0.3,0.1,0.4,0.2
		c0.4,0.2,0.8,0.5,1.1,0.7c0.2,0.1,0.3,0.1,0.5,0.1h0.1l-0.1,0.1c-0.2,0.2-0.5,0.3-0.8,0.5c-0.3,0.1-0.6,0.3-0.9,0.3
		c-0.6,0.1-1.3,0.1-1.9-0.2l0,0C266.6,402.6,266.3,402.6,266,402.6L266,402.6z M266,402.6C266,402.6,266,402.6,266,402.6
		C266,402.6,266,402.6,266,402.6L266,402.6L266,402.6z M320.8,447.3c-0.6,0.8-1.1,1.6-1.6,2.5c0,0,0.7,0,1.8,0.1l3.5,0.7l-0.4-0.6
		c0.6,0,1.2,0,1.9,0l3,0.4l-0.7-0.5l4.4,0.2l-0.7-0.4c0.5,0,1-0.1,1.4-0.1l3,0.2l-0.6-0.5c0.6-0.1,1.3-0.2,1.9-0.3l3,0.2l-0.7-0.7
		c0.5-0.1,1.1-0.2,1.6-0.3l3,0.2l-0.8-0.7c0.7-0.2,1.3-0.4,2-0.5l2.6-0.1l-1.1-0.4c0.7-0.2,1.3-0.4,2-0.7l2-0.4l-0.7-0.1
		c0.5-0.2,1.1-0.4,1.6-0.7l2.2-0.5l-0.8-0.2c0.5-0.3,1.1-0.5,1.6-0.8l1.5-0.4l-0.5-0.2c0.4-0.2,0.8-0.5,1.1-0.7l2.2-0.6l-1.2-0.1
		c0,0,0.1-0.1,0.1-0.1c0.4-0.3,0.7-0.6,1.1-0.9l2.4-1.1l-0.8-0.1c0.5-0.4,1-0.9,1.4-1.3l1.3-0.7l-0.6,0c0.6-0.6,1.1-1.1,1.7-1.7
		l1.1-0.8l-0.5,0.2c0.5-0.6,1-1.1,1.4-1.6l1-0.8l-0.5,0.1c0.4-0.5,0.7-0.9,1-1.3l1-0.8l-0.4,0c0.4-0.5,0.7-1,1-1.5l0.8-0.7l-0.4,0.1
		c0.3-0.5,0.5-0.9,0.8-1.4l1.1-1.3l-0.5,0.1c0.2-0.5,0.4-1,0.6-1.4l0.6-0.9l-0.3,0.1c0.7-1.9,0.8-3,0.8-3c-1.2,1.4-2.6,2.6-4.5,3.4
		l0.4-0.7l-2.7,1.5c-0.1,0-0.2,0-0.3,0.1l0.6-1l-2.3,1.3c-0.3,0-0.6,0.1-0.9,0.1l0-0.9l-2.4,1.1c-0.2,0-0.5,0-0.7,0l0.8-1.2l-3,1.2
		c-0.3,0-0.5,0-0.8,0l0.6-1.2l-3,1c-0.3,0-0.7-0.1-1-0.1l0.9-1.3l-3.5,1.1c-0.5,0-0.9,0.1-1.4,0.1l0.6-1.4l-3.4,1.8
		c-0.3,0.1-0.7,0.2-1.1,0.3l0.8-1.8l-4.4,3.1c-0.2,0.1-0.4,0.2-0.6,0.3l0.7-2l-4.2,3.9c-0.2,0.1-0.4,0.2-0.6,0.3l0.1-1.6l-2.3,3.2
		c-0.6,0.4-1.2,0.9-1.8,1.4l0.4-2.1l-3.8,5c-0.3,0.2-0.5,0.5-0.7,0.7l-0.6-1.1l-2.9,4.7c-0.3,0.3-0.5,0.6-0.8,0.9l-0.5-1.4l-2.4,4.9
		c-0.3,0.4-0.6,0.8-0.9,1.2l-0.5-0.6L320.8,447.3L320.8,447.3z M323.6,446.7c7.8-6.9,12.4-10,19.8-12.5c2.5-0.9,6.5-1.8,11.2-2.8
		c5.7-1.3,12.4-5,16.6-7.4c-5.5,3.7-10.4,6.6-17,8.5c-2.5,0.7-7.2,1.5-13,3.5C337.3,437.4,329.6,441.9,323.6,446.7L323.6,446.7z
		 M340.8,242.6c0,0-2.1-0.9-0.9-3.1C339.9,239.5,337.9,241.7,340.8,242.6L340.8,242.6z M328.9,240.6c0,0-2.1-0.9-0.9-3.1
		C328,237.5,326,239.7,328.9,240.6L328.9,240.6z M315.5,239.4c0,0-2.1-0.9-0.9-3.1C314.6,236.3,312.7,238.5,315.5,239.4L315.5,239.4
		z M301.7,235.5c0,0-1.9,2.2,0.9,3.1C302.6,238.6,300.4,237.8,301.7,235.5L301.7,235.5z M290.1,235.4c0,0-1.9,2.2,0.9,3.1
		C291,238.5,288.9,237.6,290.1,235.4L290.1,235.4z M276.8,236.1c0,0-1.9,2.2,0.9,3.1C277.7,239.2,275.6,238.4,276.8,236.1
		L276.8,236.1z M265.4,240.4c0,0-2.1-0.9-0.9-3.1C264.5,237.3,262.6,239.5,265.4,240.4L265.4,240.4z M336.9,194.4
		c0,0-3.3,3.7,1.5,5.3C338.4,199.7,334.8,198.2,336.9,194.4L336.9,194.4z M317.6,191.1c0,0-3.6-1.5-1.5-5.3
		C316.1,185.8,312.8,189.5,317.6,191.1L317.6,191.1z M297.2,189.8c0,0-3.6-1.5-1.5-5.3C295.7,184.5,292.4,188.2,297.2,189.8
		L297.2,189.8z M276.3,191.7c0,0-3.6-1.5-1.5-5.3C274.8,186.5,271.6,190.1,276.3,191.7L276.3,191.7z M255.6,200.1
		c0,0-3.6-1.5-1.5-5.3C254.1,194.9,250.8,198.5,255.6,200.1L255.6,200.1z M252.8,239.8c-0.3,0.5-0.9,1.6,0.3,2.4
		c0.1,0,0.1,0.1,0.2,0.1c0.2,0.1,0.4,0.2,0.7,0.3c0,0-0.3-0.1-0.7-0.4c-0.1-0.1-0.1-0.1-0.2-0.2c-0.3-0.4-0.6-1.1-0.2-2
		c0.1-0.1,0.1-0.3,0.2-0.4c0,0,0,0,0,0c0,0,0,0,0,0C252.9,239.5,252.9,239.6,252.8,239.8L252.8,239.8z M353.6,205.5
		c0,0-3.3,3.7,1.5,5.3C355.1,210.7,351.5,209.3,353.6,205.5L353.6,205.5z M238.5,211.2c0,0-3.6-1.5-1.5-5.3
		C237,206,233.8,209.6,238.5,211.2L238.5,211.2z M190.4,660.5c-0.7,0-1.2-0.6-1.6-1.6l-4.1-9.9h-0.3l-3.7,9.7
		c-0.5,1.3-0.9,1.7-1.7,1.7h-0.2v0.5c0.4,0,1,0,1.6,0c0.8,0,1.4,0,2,0v-0.5H182c-0.5,0-0.7-0.2-0.7-0.5c0-0.4,0.2-0.8,0.3-1.2
		l0.9-2.5h3.7l1.2,2.9c0.1,0.1,0.2,0.6,0.2,0.8c0,0.3-0.3,0.5-0.8,0.5h-0.4v0.5c0.6,0,1.4,0,2.2,0c0.8,0,1.6,0,2.2,0v-0.5H190.4
		L190.4,660.5z M185.9,655.6h-3.3l1.5-4.4L185.9,655.6L185.9,655.6z M166.6,660.9c0.1-1,0.2-1.9,0.3-2.9h-0.5
		c-0.3,1.8-1,2.3-3.7,2.3h-0.4c-1,0-1.4-0.2-1.4-1.2v-3.9h1.5c1.8,0,1.8,0.3,1.9,1.1h0.4c0-0.3,0-0.8,0-1.5c0-0.7,0-1.2,0-1.6h-0.4
		c0,0.9-0.1,1.3-2.1,1.3H161v-4.6h1.5c2.8,0,3,1,3.1,2.1h0.4c-0.1-0.9-0.1-1.7-0.1-2.7c-1.1,0-1.9,0-3.8,0c-1.6,0-3.4,0-4,0v0.5h0.3
		c0.7,0,1.1,0.3,1.1,1.3v7.8c0,1-0.3,1.3-1.1,1.3h-0.3v0.5c0.5,0,2,0,4,0C164,660.9,165.7,660.9,166.6,660.9L166.6,660.9z
		 M151.7,660.9c0.7,0,1.5,0,2.1,0v-0.5h-0.3c-0.7,0-1.1-0.3-1.1-1.3v-7.8c0-1,0.3-1.3,1.1-1.3h0.3v-0.5c-0.6,0-1.3,0-2.1,0
		c-0.7,0-1.4,0-2.1,0v0.5h0.5c0.6,0,0.9,0.2,0.9,1.7v3h-6.6v-3c0-1.5,0.3-1.7,0.9-1.7h0.5v-0.5c-0.7,0-1.4,0-2.1,0
		c-0.7,0-1.5,0-2.1,0v0.5h0.3c0.7,0,1.1,0.3,1.1,1.3v7.8c0,1-0.3,1.3-1.1,1.3h-0.3v0.5c0.6,0,1.3,0,2.1,0c0.7,0,1.4,0,2.1,0v-0.5
		h-0.5c-0.6,0-0.9-0.2-0.9-1.7v-3.4h6.6v3.4c0,1.5-0.3,1.7-0.9,1.7h-0.5v0.5C150.3,660.9,151,660.9,151.7,660.9L151.7,660.9z
		 M136.7,652.4h0.5v-2.9c-0.5,0-3.2,0-5.1,0c-2.1,0-4.6,0-5.1,0v2.9h0.5c0.1-1.3,0.3-2.3,2-2.3h1.8v8.8c0,1.3-0.2,1.5-1,1.5H130v0.5
		c0.6,0,1.3,0,2.1,0s1.5,0,2.1,0v-0.5h-0.4c-0.9,0-1-0.2-1-1.5v-8.8h1.8C136.4,650.2,136.6,651.2,136.7,652.4L136.7,652.4z
		 M197.1,649.5c-0.7,0-1.5,0-2.1,0v0.5h0.3c0.7,0,1.1,0.3,1.1,1.3v7.8c0,1-0.3,1.3-1.1,1.3H195v0.5c0.6,0,1.3,0,2.1,0
		c0.7,0,1.4,0,2.1,0v-0.5h-0.5c-0.6,0-0.9-0.2-0.9-1.7v-3c1.2,0,1.4,0.1,1.8,0.7l1.9,3.1c0.9,1.4,1.5,1.6,2.9,1.6c0.3,0,0.6,0,0.9,0
		v-0.3c-1.3-0.1-1.6-0.2-2.4-1.6l-2.2-3.6c0.8-0.3,2.3-0.9,2.3-3c0-0.7-0.5-3-3.4-3C198.9,649.5,198.2,649.5,197.1,649.5
		L197.1,649.5z M197.8,650.2c0.3,0,0.6-0.1,1-0.1c2.2,0,2.7,2,2.7,2.7c0,1.7-1.2,2.3-2.6,2.3c-0.4,0-0.8,0-1.1-0.1V650.2
		L197.8,650.2z M213.4,649.5c-2.1,0-4.6,0-5.1,0v2.9h0.5c0.1-1.3,0.3-2.3,2-2.3h1.8v8.8c0,1.3-0.2,1.5-1,1.5h-0.4v0.5
		c0.6,0,1.3,0,2.1,0s1.5,0,2.1,0v-0.5h-0.4c-0.9,0-1-0.2-1-1.5v-8.8h1.8c1.7,0,1.9,1,2,2.3h0.5v-2.9
		C218,649.5,215.4,649.5,213.4,649.5L213.4,649.5z M221.9,583.2c-0.3,0-0.6,0-0.7,0v0.8h0.5c0.6,0,1,0.1,1.3,0.4
		c0.3,0.3,0.4,0.8,0.4,1.6v12.4c0,0.8-0.1,1.3-0.4,1.6c-0.3,0.3-0.7,0.4-1.3,0.4h-0.5v0.8c0.1,0,0.3,0,0.7,0c1.2,0,2-0.1,2.6-0.1
		c0.5,0,1.2,0,2.2,0.1c0.4,0,0.7,0,1.1,0v-0.8h-0.7c-0.5,0-0.9-0.2-1.1-0.5c-0.2-0.3-0.3-1.1-0.3-2.2v-4.8c0.6,0,1,0,1.2,0.1
		c0.3,0,0.5,0.1,0.7,0.1c0.2,0.1,0.4,0.2,0.5,0.3c0.1,0.1,0.3,0.3,0.4,0.6l3,4.9c0.3,0.5,0.7,1,1,1.3c0.3,0.3,0.6,0.6,1,0.7
		c0.3,0.2,0.7,0.3,1.1,0.3c0.4,0.1,0.9,0.1,1.5,0.1c0.1,0,0.3,0,0.7,0c0.4,0,0.6,0,0.7,0v-0.5c-0.6,0-1-0.1-1.3-0.1
		c-0.3-0.1-0.6-0.2-0.9-0.3c-0.3-0.2-0.5-0.4-0.8-0.7c-0.2-0.3-0.6-0.8-0.9-1.4l-3.4-5.6c0.4-0.1,0.8-0.3,1.2-0.5
		c0.4-0.2,0.8-0.5,1.1-0.8c0.4-0.4,0.7-0.8,0.9-1.4c0.2-0.6,0.4-1.2,0.4-2c0-0.4-0.1-0.8-0.2-1.3c-0.2-0.5-0.4-1-0.8-1.5
		c-0.4-0.5-0.9-0.9-1.6-1.3c-0.7-0.4-1.6-0.5-2.6-0.5c-0.4,0-0.9,0-1.6,0c-1,0-1.8,0.1-2.4,0.1C223.9,583.3,223.1,583.3,221.9,583.2
		L221.9,583.2z M225.6,584.3L225.6,584.3c0.7-0.1,1.2-0.1,1.6-0.1c0.8,0,1.5,0.2,2.1,0.5c0.6,0.3,1,0.7,1.3,1.2
		c0.3,0.5,0.5,0.9,0.7,1.4c0.1,0.5,0.2,0.9,0.2,1.2c0,1.3-0.4,2.2-1.2,2.8c-0.8,0.6-1.8,0.9-3,0.9c-0.8,0-1.4-0.1-1.7-0.2V584.3
		L225.6,584.3z M224.9,649.5c-0.7,0-1.5,0-2.1,0v0.5h0.3c0.7,0,1.1,0.3,1.1,1.3v7.8c0,1-0.3,1.3-1.1,1.3h-0.3v0.5c0.6,0,1.3,0,2.1,0
		c0.7,0,1.4,0,2.1,0v-0.5h-0.3c-0.7,0-1.1-0.3-1.1-1.3v-7.8c0-1,0.3-1.3,1.1-1.3h0.3v-0.5C226.3,649.5,225.6,649.5,224.9,649.5
		L224.9,649.5z M237.5,658.4c0,1.4-1.2,2.2-2.6,2.2c-1.4,0-2.6-1-2.7-2.5h-0.5l0.1,2.6c1.2,0.4,2.6,0.4,2.9,0.4c2.7,0,4-1.5,4-3.5
		c0-1.6-1.2-2.5-2.4-3l-1.5-0.7c-1.3-0.6-1.8-1.3-1.8-2.2c0-1,0.9-1.9,2.2-1.9c2.4,0,2.6,2,2.6,2.5h0.5v-2.7c-1-0.2-2-0.4-3-0.4
		c-2.2,0-3.6,1.5-3.6,3.2c0,1.3,0.9,2.2,2.1,2.8l1.7,0.8C236.4,656.5,237.5,657,237.5,658.4L237.5,658.4z M237.7,596
		c0.5,1.1,1.1,2.1,2,2.9c0.9,0.8,1.9,1.5,3,2c1.2,0.5,2.4,0.7,3.7,0.7c1.5,0,2.8-0.3,4-0.8c1.2-0.5,2.2-1.3,3-2.2
		c0.8-0.9,1.4-1.9,1.9-3c0.4-1.1,0.6-2.2,0.6-3.4c0-1.3-0.3-2.5-0.7-3.6c-0.5-1.1-1.2-2.1-2.1-3c-0.9-0.9-1.9-1.5-3.1-2
		c-1.1-0.5-2.3-0.7-3.6-0.7c-1.2,0-2.4,0.2-3.6,0.7c-1.2,0.5-2.2,1.1-3.1,2c-0.9,0.9-1.6,1.9-2.1,3.1c-0.5,1.2-0.8,2.5-0.8,3.8
		C237,593.7,237.2,594.9,237.7,596L237.7,596z M239.5,592c0-1.4,0.2-2.7,0.6-3.7c0.4-1,0.9-1.9,1.5-2.5c0.6-0.7,1.4-1.1,2.2-1.4
		c0.8-0.3,1.7-0.4,2.6-0.4c1.1,0,2,0.2,2.9,0.7c0.9,0.5,1.6,1.2,2.2,2c0.6,0.8,1.1,1.8,1.4,2.8c0.3,1,0.5,2.1,0.5,3.1
		c0,1.2-0.1,2.3-0.4,3.3c-0.3,1-0.7,1.9-1.3,2.6c-0.6,0.7-1.3,1.3-2.1,1.7c-0.9,0.4-1.9,0.6-3,0.6c-1.1,0-2-0.2-2.9-0.7
		c-0.9-0.5-1.6-1.2-2.2-2c-0.6-0.8-1.1-1.8-1.4-2.8C239.7,594.1,239.5,593.1,239.5,592L239.5,592z M242.8,660.5h-0.2v0.5
		c0.4,0,1,0,1.6,0c0.8,0,1.4,0,2,0v-0.5h-0.4c-0.5,0-0.7-0.2-0.7-0.5c0-0.4,0.2-0.8,0.3-1.2l0.9-2.5h3.7l1.2,2.9
		c0.1,0.1,0.2,0.6,0.2,0.8c0,0.3-0.3,0.5-0.8,0.5h-0.4v0.5c0.6,0,1.4,0,2.2,0c0.8,0,1.6,0,2.2,0v-0.5h-0.3c-0.7,0-1.2-0.6-1.6-1.6
		l-4.1-9.9h-0.3l-3.7,9.7C244,660.1,243.7,660.5,242.8,660.5L242.8,660.5z M246.5,655.6l1.5-4.4l1.8,4.4H246.5L246.5,655.6z
		 M267.2,595.9c0.2,0.4,0.3,0.9,0.3,1.4c0,1-0.4,1.9-1.2,2.5c-0.8,0.6-1.8,1-2.9,1c-1.1,0-2.1-0.4-2.9-1.1c-0.8-0.7-1.3-1.7-1.4-2.8
		h-0.8l0.1,4.2c0.4,0.1,0.9,0.2,1.4,0.3c0.5,0.1,0.9,0.2,1.4,0.2c0.4,0.1,0.8,0.1,1.1,0.1c0.3,0,0.5,0,0.7,0c2.1,0,3.6-0.5,4.7-1.5
		c1.1-1,1.6-2.3,1.6-4c0-0.6-0.1-1.2-0.3-1.7c-0.2-0.5-0.5-0.9-0.8-1.3c-0.4-0.4-0.8-0.7-1.2-1c-0.4-0.3-0.9-0.5-1.4-0.8l-2.3-1.1
		c-1-0.5-1.8-1-2.2-1.5c-0.4-0.6-0.7-1.2-0.7-1.9c0-0.8,0.3-1.6,1-2.1c0.6-0.6,1.5-0.9,2.5-0.9c0.9,0,1.6,0.2,2.2,0.5
		c0.6,0.3,1,0.7,1.2,1.1c0.3,0.4,0.4,0.9,0.5,1.3c0.1,0.4,0.1,0.8,0.1,1.1h0.9v-4.3c-0.4-0.1-0.6-0.1-0.8-0.2
		c-1.8-0.4-3.1-0.5-4-0.5c-0.8,0-1.6,0.1-2.3,0.4c-0.7,0.3-1.3,0.6-1.8,1.1c-0.5,0.5-0.9,1-1.2,1.6c-0.3,0.6-0.4,1.2-0.4,1.9
		c0,1,0.3,1.9,0.9,2.6c0.6,0.7,1.4,1.3,2.4,1.8l2.7,1.3c0.5,0.2,0.9,0.4,1.2,0.6c0.3,0.2,0.7,0.4,1,0.7
		C266.7,595.2,267,595.5,267.2,595.9L267.2,595.9z M260.1,649.5c-0.5,0-1,0-1.4,0v0.5h0.5c0.8,0,1.2,0.2,1.2,1.4c0,1.9,0,4.9-0.1,7
		c0,1.7-0.2,2-1,2h-0.3v0.5c0.5,0,1.2,0,1.8,0c0.6,0,1.2,0,1.8,0v-0.5h-0.3c-0.8,0-1-0.4-1-1.7c-0.1-2.5-0.1-5-0.1-7.5h0l8,9.8h0.5
		l0.3-9.4c0-1.6,0.5-1.7,1-1.7h0.3v-0.5c-0.6,0-1.2,0-1.7,0c-0.6,0-1.2,0-1.7,0v0.5h0.2c0.9,0,1.1,0.4,1.1,2.2l0.1,6.6h0l-7.6-9.3
		C260.9,649.5,260.5,649.5,260.1,649.5L260.1,649.5z M248,562.8v-11.1c0-0.7,0.1-1.2,0.3-1.5c0.2-0.3,0.6-0.4,1.2-0.4h0.4v-0.7
		l-0.9,0c-0.9,0-1.5,0-2,0c-0.5,0-1.3,0-2.3,0c-0.3,0-0.5,0-0.6,0v0.7h0.4c0.5,0,0.9,0.1,1.2,0.4c0.2,0.3,0.3,0.8,0.3,1.5v11.1
		c0,0.7-0.1,1.2-0.3,1.5c-0.2,0.3-0.6,0.4-1.2,0.4h-0.4v0.7c0.1,0,0.3,0,0.6,0c1,0,1.8,0,2.3,0c0.4,0,1.1,0,2,0l0.9,0v-0.7h-0.4
		c-0.5,0-0.9-0.1-1.2-0.4C248.1,564,248,563.5,248,562.8L248,562.8z M272.6,574.2h-28.5v0.5h28.5c0.1,1,0.9,1.7,1.9,1.7
		c1.1,0,2-0.9,2-2c0-1.1-0.9-2-2-2C273.5,572.4,272.7,573.2,272.6,574.2L272.6,574.2z M273,574.4c0-0.9,0.7-1.5,1.5-1.5
		c0.9,0,1.5,0.7,1.5,1.5c0,0.9-0.7,1.5-1.5,1.5C273.7,575.9,273,575.3,273,574.4L273,574.4z M266.5,553l0.1,9.3h0l-10.7-13.1
		c-0.1,0-0.3,0-0.5,0c-0.6,0-1,0-1.2,0c-0.3,0-0.8,0-1.4,0c-0.3,0-0.5,0-0.6,0v0.7h0.6c0.6,0,1,0.1,1.3,0.4c0.2,0.3,0.4,0.8,0.4,1.6
		c0,1.4,0,3,0,4.8c0,1,0,2-0.1,2.9c0,0.9,0,1.6-0.1,2.2c0,1.2-0.1,2-0.3,2.3c-0.2,0.4-0.6,0.5-1.2,0.5h-0.4v0.7l0.6,0
		c0.8,0,1.5,0,1.9,0c0.4,0,1.1,0,1.8,0c0.1,0,0.3,0,0.7,0v-0.7h-0.5c-0.5,0-0.9-0.2-1.1-0.5c-0.2-0.3-0.3-1-0.4-1.9
		c-0.1-3.5-0.1-7-0.1-10.5h0l11.2,13.8h0.7l0.4-13.2c0-0.5,0.1-0.9,0.1-1.3c0.1-0.3,0.2-0.6,0.3-0.8c0.1-0.2,0.3-0.3,0.4-0.3
		c0.2-0.1,0.3-0.1,0.5-0.1h0.4v-0.7l-0.8,0c-0.7,0-1.3,0-1.6,0c-0.4,0-1,0-1.9,0c-0.2,0-0.4,0-0.6,0v0.7h0.3c0.6,0,1,0.2,1.3,0.6
		C266.3,550.9,266.5,551.7,266.5,553L266.5,553z M273,554.1c-0.4-0.5-0.6-1.1-0.6-1.7c0-0.8,0.3-1.4,0.8-1.9
		c0.6-0.5,1.3-0.8,2.2-0.8c0.8,0,1.4,0.1,1.9,0.4c0.5,0.3,0.9,0.6,1.1,1c0.2,0.4,0.4,0.8,0.5,1.1c0.1,0.4,0.1,0.7,0.1,1h0.8v-3.8
		c-0.3-0.1-0.6-0.1-0.7-0.1c-1.6-0.3-2.8-0.5-3.5-0.5c-0.7,0-1.4,0.1-2.1,0.4c-0.6,0.2-1.2,0.6-1.6,1c-0.4,0.4-0.8,0.9-1,1.4
		c-0.2,0.5-0.4,1.1-0.4,1.7c0,0.9,0.3,1.7,0.8,2.3c0.5,0.6,1.2,1.2,2.2,1.6l2.4,1.2c0.4,0.2,0.8,0.4,1.1,0.6
		c0.3,0.2,0.6,0.4,0.9,0.6c0.3,0.3,0.5,0.6,0.7,0.9c0.2,0.4,0.2,0.8,0.2,1.2c0,0.9-0.4,1.7-1.1,2.2c-0.7,0.6-1.6,0.9-2.6,0.9
		c-1,0-1.8-0.3-2.6-1c-0.7-0.7-1.2-1.5-1.3-2.5h-0.7l0.1,3.7c0.4,0.1,0.8,0.2,1.2,0.3c0.4,0.1,0.8,0.1,1.2,0.2c0.4,0,0.7,0.1,1,0.1
		c0.2,0,0.5,0,0.6,0c1.8,0,3.2-0.5,4.2-1.3c1-0.9,1.5-2.1,1.5-3.5c0-0.5-0.1-1-0.3-1.5c-0.2-0.4-0.4-0.8-0.8-1.2
		c-0.3-0.3-0.7-0.6-1.1-0.9c-0.4-0.3-0.8-0.5-1.3-0.7l-2.1-0.9C274.1,555.1,273.4,554.6,273,554.1L273,554.1z M274.5,583.3
		c-1.2,0-2.1,0-2.7-0.1v0.8h0.5c0.6,0,1,0.1,1.3,0.4c0.3,0.3,0.4,0.8,0.4,1.6v12.4c0,0.8-0.1,1.3-0.4,1.6c-0.3,0.3-0.7,0.4-1.3,0.4
		h-0.5v0.8c0.6,0,1.5,0,2.6-0.1c1.1,0,2.3,0,3.7,0c1.1,0,2.2,0,3.3,0c1.1,0,2.2,0,3.3,0.1c0.1,0,0.3,0,0.4,0
		c0.1-0.9,0.2-1.7,0.3-2.5l0.2-2.1h-0.7c-0.1,0.7-0.3,1.3-0.5,1.8c-0.2,0.5-0.5,0.8-1,1.1c-0.4,0.3-1,0.5-1.7,0.6
		c-0.7,0.1-1.6,0.2-2.7,0.2h-0.7c-0.8,0-1.4-0.1-1.7-0.4c-0.3-0.3-0.5-0.8-0.5-1.5v-6.1h2.4c0.7,0,1.2,0,1.6,0.1
		c0.4,0.1,0.7,0.2,0.9,0.3c0.2,0.1,0.3,0.3,0.4,0.5c0,0.2,0.1,0.5,0.2,0.9v0h0.7c0-0.7,0-1.4,0-2.3c0-0.9,0-1.7,0-2.5h-0.7
		c0,0.4-0.1,0.8-0.1,1c-0.1,0.2-0.2,0.4-0.4,0.6c-0.2,0.2-0.5,0.3-0.9,0.3c-0.4,0.1-1,0.1-1.8,0.1h-2.2v-7.2h2.4
		c1.1,0,1.9,0.1,2.6,0.3c0.6,0.2,1.1,0.4,1.4,0.7c0.3,0.3,0.5,0.6,0.6,1c0.1,0.3,0.2,0.8,0.3,1.4v0.1h0.7c-0.1-1-0.2-2.4-0.2-4.3
		c-0.3,0-0.8,0-1.5,0c-1.6,0-3.1,0.1-4.5,0.1C276.9,583.3,275.7,583.3,274.5,583.3L274.5,583.3z M281.3,658.4c0,1.4-1.2,2.2-2.6,2.2
		c-1.4,0-2.6-1-2.7-2.5h-0.5l0.1,2.6c1.2,0.4,2.6,0.4,2.9,0.4c2.7,0,4-1.5,4-3.5c0-1.6-1.2-2.5-2.4-3l-1.5-0.7
		c-1.3-0.6-1.8-1.3-1.8-2.2c0-1,0.9-1.9,2.2-1.9c2.4,0,2.6,2,2.6,2.5h0.5v-2.7c-1-0.2-2-0.4-3-0.4c-2.2,0-3.6,1.5-3.6,3.2
		c0,1.3,0.9,2.2,2.1,2.8l1.7,0.8C280.2,656.5,281.3,657,281.3,658.4L281.3,658.4z M285.4,576.9c0.3,0,0.6,0,0.9,0c0.3,0,0.6,0,0.9,0
		l0.1,0v-0.3h-0.2c-0.1,0-0.2,0-0.3-0.1c-0.1-0.1-0.2-0.3-0.3-0.5l-1.7-4l0,0h-0.2l-1.5,4c-0.1,0.3-0.2,0.4-0.3,0.5
		c-0.1,0.1-0.2,0.1-0.4,0.1h-0.1v0.3l0.1,0c0.1,0,0.3,0,0.6,0c0.3,0,0.5,0,0.8,0l0.1,0v-0.3h-0.2c-0.1,0-0.1,0-0.2,0
		c0,0,0-0.1,0-0.1c0-0.1,0-0.1,0-0.2c0-0.1,0-0.2,0.1-0.3l0.3-1h1.4l0.5,1.1c0,0,0,0.1,0,0.1l0,0.1c0,0.1,0,0.1,0,0.1
		c0,0,0,0.1-0.3,0.1h-0.2L285.4,576.9L285.4,576.9L285.4,576.9z M285.1,574.6H284l0.5-1.5L285.1,574.6L285.1,574.6z M293,572.9v3.2
		c0,0.2,0,0.3-0.1,0.4c-0.1,0.1-0.2,0.1-0.3,0.1h-0.2v0.3h0.1c0,0,0.1,0,0.2,0c0.3,0,0.6,0,0.7,0c0.1,0,0.3,0,0.6,0l0.3,0v-0.3H294
		c-0.1,0-0.2,0-0.3-0.1c-0.1-0.1-0.1-0.2-0.1-0.4v-1.5h0.6c0.2,0,0.3,0,0.4,0c0.1,0,0.2,0,0.2,0.1c0,0,0.1,0.1,0.1,0.1
		c0,0.1,0,0.2,0,0.3v0.1h0.3l0-0.4c0-0.1,0-0.3,0-0.4c0-0.2,0-0.5,0-0.6l0-0.1H295l0,0.1c0,0.1,0,0.2,0,0.2c0,0,0,0.1-0.1,0.1
		c0,0-0.1,0-0.2,0.1c-0.1,0-0.3,0-0.5,0h-0.5v-1.7h0.6c0.3,0,0.5,0,0.6,0.1c0.1,0,0.2,0.1,0.3,0.1c0.1,0.1,0.1,0.1,0.1,0.2
		c0,0.1,0,0.2,0.1,0.4l0,0.1h0.3l0-0.1c0-0.5,0-0.8,0-1.1l0-0.1h-0.1c-0.1,0-0.2,0-0.4,0c-0.4,0-0.8,0-1.2,0c-0.2,0-0.4,0-0.6,0
		l-0.3,0c-0.3,0-0.5,0-0.7,0l-0.1,0v0.3h0.2c0.1,0,0.2,0,0.3,0.1C292.9,572.6,293,572.7,293,572.9L293,572.9z M291.5,574.8v-1.7
		c0-0.4,0.1-0.5,0.1-0.5c0.1-0.1,0.1-0.1,0.3-0.1h0.2v-0.3h-0.1c0,0-0.1,0-0.2,0l-0.1,0c-0.2,0-0.3,0-0.4,0c-0.1,0-0.3,0-0.5,0l0,0
		c-0.1,0-0.1,0-0.1,0h-0.1v0.3h0.2c0.1,0,0.1,0,0.2,0c0,0,0,0,0.1,0.1c0,0,0,0.2,0.1,0.6c0,0.3,0,0.7,0,1.1v0.7
		c0,0.5-0.1,0.8-0.3,1.1c0,0.1-0.1,0.1-0.2,0.2c-0.1,0.1-0.2,0.1-0.3,0.2c-0.1,0.1-0.2,0.1-0.4,0.1c-0.1,0-0.3,0.1-0.4,0.1
		c-0.2,0-0.5,0-0.6-0.1c-0.2-0.1-0.3-0.2-0.4-0.4c-0.1-0.1-0.2-0.3-0.2-0.4c0-0.2-0.1-0.4-0.1-0.6c0-0.3,0-0.7,0-1.2
		c0-0.4,0-0.7,0-0.8c0-0.3,0.1-0.4,0.1-0.5c0-0.1,0.1-0.1,0.2-0.1h0.2v-0.3l-0.3,0l-0.1,0c-0.2,0-0.4,0-0.5,0c-0.1,0-0.3,0-0.5,0
		l-0.4,0v0.3h0.2c0.1,0,0.2,0,0.3,0.1c0.1,0.1,0.1,0.2,0.1,0.4v2.1c0,0.4,0.1,0.7,0.2,1c0.1,0.3,0.3,0.5,0.5,0.7
		c0.2,0.2,0.4,0.3,0.6,0.3c0.2,0.1,0.4,0.1,0.7,0.1c0.3,0,0.6-0.1,0.8-0.2c0.3-0.1,0.5-0.2,0.6-0.4
		C291.3,576,291.5,575.5,291.5,574.8L291.5,574.8z M288.4,550.1v12.4c0,0.9-0.1,1.5-0.3,1.8c-0.2,0.3-0.6,0.4-1.2,0.4h-0.5v0.7
		c0.3,0,0.6,0,0.7,0c0.9,0,1.7,0,2.2,0c0.6,0,1.3,0,2.2,0c0.2,0,0.4,0,0.7,0v-0.7h-0.5c-0.6,0-1-0.1-1.2-0.4
		c-0.2-0.3-0.3-0.8-0.3-1.8v-12.4h2.6c0.6,0,1,0.1,1.4,0.2c0.4,0.2,0.7,0.4,0.9,0.7c0.2,0.3,0.3,0.6,0.4,1c0.1,0.4,0.1,0.8,0.2,1.3
		h0.8v-4.1c-0.5,0-1.5,0-3.1,0c-1.5,0-2.9,0-4.1,0c-1.3,0-2.7,0-4.3,0c-1.5,0-2.5,0-2.9,0v4.1h0.8c0-0.5,0.1-0.9,0.2-1.3
		c0.1-0.4,0.2-0.7,0.4-1c0.2-0.3,0.5-0.5,0.9-0.7c0.4-0.2,0.8-0.2,1.4-0.2H288.4L288.4,550.1z M298.7,572.9v3.2c0,0.2,0,0.3-0.1,0.4
		c-0.1,0.1-0.2,0.1-0.3,0.1h-0.2v0.3h0.1c0,0,0.1,0,0.2,0c0.3,0,0.5,0,0.7,0c0.1,0,0.4,0,0.7,0c0.3,0,0.5,0,0.6,0
		c0.5,0,0.9-0.1,1.3-0.2c0.3-0.1,0.6-0.4,0.9-0.6c0.2-0.2,0.4-0.5,0.5-0.8c0.1-0.3,0.1-0.6,0.1-0.8c0-0.2,0-0.5-0.1-0.8
		c-0.1-0.3-0.2-0.5-0.4-0.8c-0.2-0.2-0.5-0.4-0.8-0.6c-0.3-0.2-0.7-0.2-1.1-0.2c-0.2,0-0.5,0-0.8,0l0,0c-0.3,0-0.6,0-0.8,0
		c-0.1,0-0.3,0-0.6,0l-0.1,0c-0.1,0-0.2,0-0.2,0h-0.1v0.3h0.2c0.1,0,0.2,0,0.3,0.1C298.6,572.6,298.7,572.7,298.7,572.9L298.7,572.9
		z M299.4,572.5c0.3,0,0.6,0,0.8,0c0.4,0,0.7,0.1,1,0.2c0.3,0.1,0.5,0.3,0.7,0.5c0.2,0.2,0.3,0.5,0.4,0.7c0.1,0.2,0.1,0.5,0.1,0.8
		c0,0.4-0.1,0.6-0.2,0.9c-0.1,0.2-0.2,0.4-0.4,0.6c-0.2,0.2-0.4,0.3-0.6,0.3c-0.3,0.1-0.5,0.1-0.8,0.1c-0.5,0-0.7-0.1-0.7-0.1
		c-0.1,0-0.1-0.1-0.1-0.1c0-0.1,0-0.2,0-0.3V572.5L299.4,572.5z M301.8,562.8v-11.1c0-0.7,0.1-1.2,0.3-1.5c0.2-0.3,0.6-0.4,1.2-0.4
		h0.4v-0.7l-0.9,0c-0.9,0-1.5,0-2,0c-0.5,0-1.3,0-2.3,0c-0.3,0-0.5,0-0.6,0v0.7h0.4c0.5,0,0.9,0.1,1.2,0.4c0.2,0.3,0.3,0.8,0.3,1.5
		v11.1c0,0.7-0.1,1.2-0.3,1.5c-0.2,0.3-0.6,0.4-1.2,0.4h-0.4v0.7c0.1,0,0.3,0,0.6,0c1,0,1.8,0,2.3,0c0.5,0,1.1,0,2,0l0.9,0v-0.7
		h-0.4c-0.5,0-0.9-0.1-1.2-0.4C301.9,564,301.8,563.5,301.8,562.8L301.8,562.8z M288.1,583.2c-0.3,0-0.5,0-0.6,0v0.8h0.7
		c0.7,0,1.2,0.1,1.4,0.4c0.3,0.3,0.4,0.9,0.4,1.8c0,1.6,0,3.4,0,5.4c0,1.1,0,2.2-0.1,3.3c0,1,0,1.8-0.1,2.5c0,1.4-0.2,2.2-0.4,2.6
		c-0.2,0.4-0.6,0.6-1.3,0.6h-0.4v0.8l0.6,0c0.9,0,1.7-0.1,2.2-0.1c0.5,0,1.2,0,2.1,0.1c0.1,0,0.4,0,0.7,0v-0.8h-0.5
		c-0.6,0-1-0.2-1.3-0.6c-0.2-0.4-0.4-1.1-0.4-2.1c-0.1-3.9-0.1-7.9-0.1-11.8h0l12.6,15.5h0.8l0.5-14.8c0-0.6,0.1-1.1,0.2-1.4
		c0.1-0.4,0.2-0.7,0.4-0.8c0.1-0.2,0.3-0.3,0.5-0.4c0.2-0.1,0.4-0.1,0.6-0.1h0.4v-0.8l-0.9,0c-0.8,0-1.4,0.1-1.8,0.1
		c-0.5,0-1.2,0-2.1-0.1c-0.3,0-0.5,0-0.7,0v0.8h0.3c0.7,0,1.2,0.2,1.4,0.7c0.2,0.5,0.4,1.4,0.4,2.8l0.2,10.4h-0.1l-12-14.7
		c-0.1,0-0.3,0-0.6,0c-0.6,0-1.1,0.1-1.4,0.1C289.3,583.3,288.8,583.3,288.1,583.2L288.1,583.2z M295.3,655.3c0,3.2,2.5,5.8,6,5.8
		c3.9,0,6-3.1,6-5.9c0-3.3-2.8-5.9-6-5.9C298.1,649.3,295.3,651.8,295.3,655.3L295.3,655.3z M296.9,655.1c0-3.7,2.1-5.1,4.4-5.1
		c2.8,0,4.4,2.8,4.4,5.4c0,3-1.4,5.1-4.3,5.1C298.6,660.5,296.9,657.7,296.9,655.1L296.9,655.1z M306.8,576.9l0.5,0l0-0.1
		c0-0.1,0-0.3,0-0.4l0.1-0.8h-0.3l0,0.1c0,0.2-0.1,0.3-0.1,0.4c-0.1,0.1-0.1,0.2-0.2,0.3c-0.1,0.1-0.2,0.1-0.4,0.1
		c-0.2,0-0.4,0-0.7,0h-0.2c-0.2,0-0.4,0-0.4-0.1c-0.1-0.1-0.1-0.2-0.1-0.3v-1.5h0.6c0.2,0,0.3,0,0.4,0c0.1,0,0.2,0,0.2,0.1
		c0,0,0.1,0.1,0.1,0.1c0,0,0,0.1,0,0.2v0.1h0.3l0-0.1c0-0.2,0-0.4,0-0.6c0-0.2,0-0.4,0-0.6l0-0.1h-0.3l0,0.1c0,0.1,0,0.2,0,0.3
		c0,0,0,0.1-0.1,0.1c0,0-0.1,0.1-0.2,0.1c-0.1,0-0.3,0-0.5,0H305v-1.7h0.6c0.3,0,0.5,0,0.7,0.1c0.2,0,0.3,0.1,0.3,0.2
		c0.1,0.1,0.1,0.1,0.1,0.2c0,0.1,0.1,0.2,0.1,0.3v0.1h0.3l0-0.1c0-0.3,0-0.6-0.1-1.1l0-0.1H307c-0.1,0-0.2,0-0.4,0
		c-0.4,0-0.8,0-1.2,0c-0.2,0-0.4,0-0.6,0l-0.3,0c-0.3,0-0.6,0-0.7,0l-0.1,0v0.3h0.2c0.1,0,0.2,0,0.3,0.1c0.1,0.1,0.1,0.2,0.1,0.4
		v3.2c0,0.2,0,0.3-0.1,0.4c-0.1,0.1-0.2,0.1-0.3,0.1h-0.2v0.3l0.1,0c0.2,0,0.4,0,0.7,0c0.3,0,0.6,0,1,0c0.3,0,0.6,0,0.8,0
		C306.5,576.9,306.6,576.9,306.8,576.9L306.8,576.9z M308.2,576.6H308v0.3h0.1c0.1,0,0.1,0,0.2,0c0.2,0,0.4,0,0.5,0
		c0.2,0,0.4,0,0.6,0c0,0,0.1,0,0.1,0h0.1v-0.3h-0.2c-0.2,0-0.3-0.1-0.3-0.2c0-0.1-0.1-0.3-0.1-0.7v-2.4l1.7,3.7l0,0h0.2l1.7-4v3
		c0,0.4,0,0.5-0.1,0.5c0,0.1-0.1,0.1-0.3,0.1h-0.2v0.3l0.1,0c0,0,0.1,0,0.1,0c0.3,0,0.5,0,0.7,0c0.1,0,0.4,0,0.7,0
		c0.1,0,0.1,0,0.2,0h0.1v-0.3h-0.2c-0.1,0-0.2,0-0.2,0c0,0-0.1,0-0.1-0.1c0-0.1,0-0.1-0.1-0.2c0-0.1,0-0.2,0-0.4l0-1.1
		c0-0.5,0-0.9,0-1.2l0-0.2c0-0.2,0-0.3,0-0.4c0-0.2,0-0.3,0.1-0.4c0.1-0.1,0.2-0.1,0.3-0.1h0.2v-0.3h-0.1c-0.1,0-0.1,0-0.2,0l-0.1,0
		c-0.2,0-0.3,0-0.3,0c-0.1,0-0.2,0-0.3,0l-0.1,0c0,0-0.1,0-0.2,0l0,0l-1.6,3.8l-1.7-3.7l0,0l0,0c-0.1,0-0.1,0-0.2,0l-0.1,0
		c-0.1,0-0.1,0-0.2,0c-0.1,0-0.2,0-0.3,0l0,0c-0.1,0-0.1,0-0.2,0l-0.1,0v0.3h0.2c0.2,0,0.3,0,0.3,0.1c0,0,0.1,0.1,0.1,0.4
		c0,0.4,0,1,0,1.8c0,0.3,0,0.6,0,0.8l0,0.2c0,0.4,0,0.6-0.1,0.7C308.5,576.5,308.4,576.6,308.2,576.6L308.2,576.6z M311.1,550.1
		v12.4c0,0.9-0.1,1.5-0.3,1.8c-0.2,0.3-0.6,0.4-1.2,0.4h-0.5v0.7c0.3,0,0.6,0,0.7,0c0.9,0,1.7,0,2.2,0c0.6,0,1.3,0,2.2,0
		c0.2,0,0.4,0,0.7,0v-0.7h-0.5c-0.6,0-1-0.1-1.2-0.4c-0.2-0.3-0.3-0.8-0.3-1.8v-12.4h2.6c0.6,0,1,0.1,1.4,0.2
		c0.4,0.2,0.7,0.4,0.9,0.7c0.2,0.3,0.3,0.6,0.4,1c0.1,0.4,0.1,0.8,0.2,1.3h0.8v-4.1c-0.5,0-1.5,0-3.1,0c-1.5,0-2.9,0-4.1,0
		c-1.3,0-2.7,0-4.3,0c-1.5,0-2.5,0-2.9,0v4.1h0.8c0-0.5,0.1-0.9,0.2-1.3c0.1-0.4,0.2-0.7,0.4-1c0.2-0.3,0.5-0.5,0.9-0.7
		c0.4-0.2,0.8-0.2,1.4-0.2H311.1L311.1,550.1z M310,583.2c-0.3,0-0.6,0-0.7,0v0.8h0.5c0.6,0,1,0.1,1.3,0.4c0.3,0.3,0.4,0.8,0.4,1.6
		v12.4c0,0.8-0.1,1.3-0.4,1.6c-0.3,0.3-0.7,0.4-1.3,0.4h-0.5v0.8c0.1,0,0.3,0,0.7,0c1.2,0,2-0.1,2.6-0.1c0.5,0,1.1,0,1.9,0.1
		c0.8,0,1.4,0,1.8,0c1.1,0,2-0.1,2.7-0.3c0.7-0.2,1.3-0.4,1.8-0.8c0.8-0.6,1.3-1.2,1.6-1.9c0.3-0.7,0.5-1.4,0.5-2
		c0-1.3-0.4-2.3-1.2-3.2c-0.8-0.8-1.8-1.3-3-1.5v-0.1c1.1-0.5,1.9-1.1,2.4-1.8c0.5-0.6,0.8-1.5,0.8-2.5c0-0.8-0.2-1.5-0.5-2
		c-0.3-0.6-0.7-1-1.2-1.3c-0.5-0.3-1.1-0.5-1.7-0.6c-0.6-0.1-1.3-0.2-2-0.2c-0.5,0-1.2,0-2.1,0.1c-0.8,0-1.4,0-1.7,0
		C312,583.3,311.1,583.3,310,583.2L310,583.2z M313.7,592.4c0.3-0.1,0.7-0.1,1.4-0.1c0.7,0,1.3,0.1,1.9,0.2c0.5,0.1,1.1,0.4,1.6,0.7
		c0.7,0.5,1.2,1,1.5,1.7c0.3,0.7,0.5,1.4,0.5,2.1c0,1.1-0.4,1.9-1.1,2.5c-0.8,0.6-1.8,0.9-3.1,0.9c-0.5,0-1-0.1-1.3-0.2
		c-0.3-0.1-0.6-0.3-0.8-0.5c-0.2-0.2-0.3-0.5-0.4-0.7c-0.1-0.3-0.1-0.6-0.1-0.9V592.4L313.7,592.4z M313.7,585.3
		c0-0.5,0.1-0.8,0.3-1c0.2-0.2,0.7-0.3,1.5-0.3c0.6,0,1.1,0.1,1.6,0.2c0.5,0.2,1,0.4,1.4,0.7c0.4,0.3,0.7,0.8,1,1.3
		c0.2,0.5,0.4,1.2,0.4,2c0,0.7-0.2,1.2-0.5,1.6c-0.3,0.4-0.7,0.7-1.2,0.9c-0.5,0.2-1,0.3-1.5,0.4c-0.5,0.1-1,0.1-1.5,0.1
		c-0.4,0-0.9,0-1.4-0.1V585.3L313.7,585.3z M315.7,649.5c-1.6,0-3.4,0-3.9,0v0.5h0.3c0.7,0,1.1,0.3,1.1,1.3v7.8c0,1-0.3,1.3-1.1,1.3
		h-0.3v0.5c0.6,0,1.3,0,2.1,0c0.7,0,1.4,0,2.1,0v-0.5h-0.3c-0.7,0-1.1-0.3-1.1-1.3v-3.9h1.5c1.8,0,1.8,0.3,1.9,1.4h0.4
		c0-0.6,0-1.1,0-1.7c0-0.7,0-1.2,0-1.5H318c0,0.9-0.1,1.2-2.1,1.2h-1.4v-4.6h1.7c2.7,0,2.8,0.8,2.9,2h0.4c0-0.8-0.1-1.7-0.1-2.7
		C318.3,649.5,317.6,649.5,315.7,649.5L315.7,649.5z M334,556.4v2.4c0,1.7-0.4,3-1.1,4c-0.1,0.2-0.3,0.4-0.6,0.6
		c-0.3,0.2-0.6,0.4-1,0.6c-0.4,0.2-0.8,0.4-1.3,0.5c-0.5,0.1-0.9,0.2-1.4,0.2c-0.9,0-1.6-0.2-2.3-0.5c-0.6-0.3-1.1-0.8-1.5-1.3
		c-0.3-0.4-0.6-0.9-0.7-1.5c-0.1-0.5-0.2-1.3-0.2-2.2c0-1,0-2.4,0-4.3c0-1.3,0-2.2,0-2.9c0-0.9,0.1-1.5,0.4-1.8
		c0.2-0.3,0.6-0.4,1.1-0.5h0.4v-0.7l-1,0c-0.9,0-1.5,0-1.9,0c-0.5,0-1.1,0-2,0l-0.9,0v0.7h0.4c0.5,0,0.8,0.1,1.1,0.4
		c0.2,0.2,0.4,0.7,0.4,1.4v7.1c0,1.2,0.2,2.3,0.5,3.2c0.3,0.9,0.9,1.6,1.6,2.2c0.7,0.5,1.4,0.9,2.1,1.1c0.7,0.2,1.5,0.4,2.3,0.4
		c0.9,0,1.8-0.2,2.7-0.5c0.9-0.4,1.6-0.8,2.1-1.3c1.2-1.3,1.8-3.2,1.8-5.6v-5.8c0-1,0.1-1.7,0.3-2c0.2-0.3,0.6-0.5,1-0.5h0.3v-0.7
		c0,0-0.3,0-0.8,0c-0.7,0-1.2,0-1.6,0c-0.4,0-1.1,0-1.9,0c-0.2,0-0.4,0-0.5,0v0.7h0.5c0.3,0,0.5,0,0.7,0.1c0.1,0.1,0.3,0.2,0.4,0.5
		c0.1,0.2,0.2,0.9,0.3,2.1C334,553.7,334,554.9,334,556.4L334,556.4z M343.9,550.1v12.4c0,0.9-0.1,1.5-0.3,1.8
		c-0.2,0.3-0.6,0.4-1.2,0.4h-0.5v0.7c0.3,0,0.6,0,0.7,0c0.9,0,1.7,0,2.3,0c0.6,0,1.3,0,2.2,0c0.2,0,0.4,0,0.7,0v-0.7h-0.5
		c-0.6,0-1-0.1-1.2-0.4c-0.2-0.3-0.3-0.8-0.3-1.8v-12.4h2.6c0.6,0,1,0.1,1.4,0.2c0.4,0.2,0.7,0.4,0.9,0.7c0.2,0.3,0.3,0.6,0.4,1
		c0.1,0.4,0.1,0.8,0.2,1.3h0.8v-4.1c-0.5,0-1.5,0-3.1,0c-1.5,0-2.9,0-4.1,0c-1.3,0-2.7,0-4.3,0c-1.5,0-2.5,0-2.9,0v4.1h0.8
		c0-0.5,0.1-0.9,0.2-1.3c0.1-0.4,0.2-0.7,0.4-1c0.2-0.3,0.5-0.5,0.8-0.7c0.4-0.2,0.8-0.2,1.4-0.2H343.9L343.9,550.1z M321.7,576.4
		c1,0,1.8-0.8,1.9-1.7h28.5v-0.5h-28.5c-0.1-1-0.9-1.7-1.9-1.7c-1.1,0-2,0.9-2,2C319.7,575.5,320.6,576.4,321.7,576.4L321.7,576.4z
		 M321.7,576c-0.9,0-1.5-0.7-1.5-1.5c0-0.9,0.7-1.5,1.5-1.5c0.9,0,1.5,0.7,1.5,1.5C323.2,575.3,322.5,576,321.7,576L321.7,576z
		 M327.3,583.3c-1.2,0-2.1,0-2.7-0.1v0.8h0.5c0.6,0,1,0.1,1.3,0.4c0.3,0.3,0.4,0.8,0.4,1.6v12.4c0,0.8-0.1,1.3-0.4,1.6
		c-0.3,0.3-0.7,0.4-1.3,0.4h-0.5v0.8c0.6,0,1.5,0,2.6-0.1c1.1,0,2.3,0,3.7,0c1.1,0,2.2,0,3.3,0c1.1,0,2.2,0,3.3,0.1
		c0.1,0,0.3,0,0.4,0c0.1-0.9,0.2-1.7,0.3-2.5l0.2-2.1h-0.7c-0.1,0.7-0.3,1.3-0.5,1.8c-0.2,0.5-0.5,0.8-1,1.1c-0.4,0.3-1,0.5-1.7,0.6
		c-0.7,0.1-1.6,0.2-2.7,0.2h-0.7c-0.8,0-1.4-0.1-1.7-0.4c-0.3-0.3-0.5-0.8-0.5-1.5v-6.1h2.4c0.7,0,1.2,0,1.6,0.1
		c0.4,0.1,0.7,0.2,0.9,0.3c0.2,0.1,0.3,0.3,0.4,0.5c0,0.2,0.1,0.5,0.2,0.9v0h0.7c0-0.7-0.1-1.4-0.1-2.3c0-0.9,0-1.7,0.1-2.5h-0.7
		c0,0.4-0.1,0.8-0.1,1c-0.1,0.2-0.2,0.4-0.4,0.6c-0.2,0.2-0.5,0.3-0.9,0.3c-0.4,0.1-1,0.1-1.8,0.1h-2.2v-7.2h2.4
		c1.1,0,1.9,0.1,2.6,0.3c0.6,0.2,1.1,0.4,1.4,0.7c0.3,0.3,0.5,0.6,0.6,1c0.1,0.3,0.2,0.8,0.3,1.4v0.1h0.7c-0.1-1-0.2-2.4-0.2-4.3
		c-0.3,0-0.8,0-1.5,0c-1.6,0-3.1,0.1-4.5,0.1C329.7,583.3,328.5,583.3,327.3,583.3L327.3,583.3z M335.2,649.5c-1.6,0-3.4,0-4,0v0.5
		h0.3c0.7,0,1.1,0.3,1.1,1.3v7.8c0,1-0.3,1.3-1.1,1.3h-0.3v0.5c0.5,0,2,0,4,0c1.7,0,3.5,0,4.4,0c0.1-1,0.2-1.9,0.3-2.9h-0.5
		c-0.3,1.8-1,2.3-3.7,2.3h-0.4c-1,0-1.4-0.2-1.4-1.2v-3.9h1.5c1.8,0,1.8,0.3,1.9,1.1h0.4c0-0.3,0-0.8,0-1.5c0-0.7,0-1.2,0-1.6h-0.4
		c0,0.9-0.1,1.3-2.1,1.3H334v-4.6h1.5c2.8,0,3,1,3.1,2.1h0.4c-0.1-0.9-0.1-1.7-0.1-2.7C337.9,649.5,337.1,649.5,335.2,649.5
		L335.2,649.5z M341.2,583.2c-0.3,0-0.6,0-0.7,0v0.8h0.5c0.6,0,1,0.1,1.3,0.4c0.3,0.3,0.4,0.8,0.4,1.6v12.4c0,0.8-0.1,1.3-0.4,1.6
		c-0.3,0.3-0.7,0.4-1.3,0.4h-0.5v0.8c0.1,0,0.3,0,0.7,0c1.2,0,2-0.1,2.6-0.1c0.5,0,1.2,0,2.2,0.1c0.4,0,0.7,0,1.1,0v-0.8h-0.7
		c-0.5,0-0.9-0.2-1.1-0.5c-0.2-0.3-0.3-1.1-0.3-2.2v-4.8c0.6,0,1,0,1.2,0.1c0.3,0,0.5,0.1,0.7,0.1c0.2,0.1,0.4,0.2,0.5,0.3
		c0.1,0.1,0.3,0.3,0.4,0.6l3,4.9c0.3,0.5,0.7,1,1,1.3c0.3,0.3,0.6,0.6,1,0.7c0.3,0.2,0.7,0.3,1.1,0.3c0.4,0.1,0.9,0.1,1.5,0.1
		c0.1,0,0.3,0,0.7,0c0.4,0,0.6,0,0.7,0v-0.5c-0.6,0-1-0.1-1.3-0.1c-0.3-0.1-0.6-0.2-0.9-0.3c-0.3-0.2-0.5-0.4-0.8-0.7
		c-0.2-0.3-0.6-0.8-0.9-1.4l-3.4-5.6c0.4-0.1,0.8-0.3,1.2-0.5c0.4-0.2,0.8-0.5,1.1-0.8c0.4-0.4,0.7-0.8,0.9-1.4
		c0.2-0.6,0.4-1.2,0.4-2c0-0.4-0.1-0.8-0.2-1.3c-0.2-0.5-0.4-1-0.8-1.5c-0.4-0.5-0.9-0.9-1.6-1.3c-0.7-0.4-1.6-0.5-2.6-0.5
		c-0.4,0-0.9,0-1.6,0c-1,0-1.8,0.1-2.4,0.1C343.2,583.3,342.4,583.3,341.2,583.2L341.2,583.2z M344.9,584.3L344.9,584.3
		c0.7-0.1,1.2-0.1,1.6-0.1c0.8,0,1.5,0.2,2.1,0.5c0.6,0.3,1,0.7,1.3,1.2c0.3,0.5,0.5,0.9,0.7,1.4c0.1,0.5,0.2,0.9,0.2,1.2
		c0,1.3-0.4,2.2-1.2,2.8c-0.8,0.6-1.8,0.9-3,0.9c-0.8,0-1.4-0.1-1.7-0.2V584.3L344.9,584.3z M346.5,649.5c-0.7,0-1.5,0-2.1,0v0.5
		h0.3c0.7,0,1.1,0.3,1.1,1.3v7.8c0,1-0.3,1.3-1.1,1.3h-0.3v0.5c0.6,0,1.3,0,2.1,0c1.1,0,2.3,0,3.3,0c4.9,0,6.5-3.5,6.5-5.8
		c0-2.1-1.5-5.6-5.9-5.6C349.1,649.5,347.8,649.5,346.5,649.5L346.5,649.5z M347.2,650.2c0.7-0.1,1.4-0.1,2-0.1c4,0,5.5,3.1,5.5,5.5
		c0,3.6-2.3,4.8-5.1,4.8c-1.8,0-2.3-0.2-2.3-1.5V650.2L347.2,650.2z M356.5,595.6c0.4,1.1,0.9,2,1.7,3c0.8,0.9,1.9,1.7,3.2,2.3
		c1.3,0.6,2.9,0.9,4.7,0.9c1.2,0,2.4-0.1,3.5-0.3c1.1-0.2,2.3-0.5,3.6-0.9v-5.1c0-0.5,0.1-0.8,0.3-1c0.2-0.2,0.5-0.3,0.9-0.3h0.6
		v-0.8l-1,0c-0.9,0-1.5,0.1-2,0.1c-0.5,0-1.3,0-2.2-0.1c-0.3,0-0.5,0-0.7,0v0.8h0.4c0.6,0,1,0.1,1.2,0.3c0.2,0.2,0.3,0.6,0.3,1v4.2
		c-0.9,0.4-1.7,0.7-2.2,0.8c-0.5,0.1-1.3,0.2-2.2,0.2c-1.1,0-2.2-0.2-3.2-0.7c-1-0.5-1.9-1.1-2.6-2c-0.7-0.8-1.3-1.8-1.7-2.8
		c-0.4-1-0.6-2.1-0.6-3.3c0-1.2,0.2-2.4,0.6-3.3c0.4-1,0.9-1.8,1.6-2.5c0.7-0.7,1.5-1.2,2.4-1.5c0.9-0.3,1.9-0.5,3-0.5
		c0.7,0,1.4,0.1,2.1,0.2c0.7,0.1,1.3,0.4,1.9,0.7c0.6,0.3,1.1,0.7,1.5,1.2c0.4,0.5,0.6,1,0.7,1.7h0.7v-3.5c-1.2-0.4-2.3-0.7-3.4-1
		c-1.1-0.3-2.2-0.4-3.3-0.4c-1.6,0-3,0.2-4.3,0.7c-1.3,0.5-2.4,1.1-3.3,2c-0.9,0.9-1.6,1.9-2.1,3.1c-0.5,1.2-0.7,2.4-0.7,3.8
		C356,593.5,356.2,594.5,356.5,595.6L356.5,595.6z M362.5,649.5c-0.7,0-1.4,0-2.1,0v0.5h0.3c0.6,0,1,0.2,1,1.2v5.1
		c0,1.7,0.4,3,1.5,3.8c1,0.8,1.9,1.1,3.1,1.1c1.3,0,2.7-0.6,3.4-1.3c0.9-0.9,1.3-2.3,1.3-4v-4.1c0-1.5,0.4-1.8,1-1.8h0.2v-0.5
		c-0.6,0-1.1,0-1.7,0c-0.6,0-1.2,0-1.7,0v0.5h0.3c0.4,0,0.6,0.1,0.8,0.4c0.1,0.3,0.3,2,0.3,4.2v1.7c0,1.1-0.3,2.1-0.8,2.9
		c-0.4,0.5-1.6,1.4-3,1.4c-1.3,0-2.2-0.6-2.7-1.3c-0.4-0.6-0.7-1.2-0.7-2.6c0-1.7,0-3.4,0.1-5.1c0-1.4,0.4-1.6,1-1.6h0.3v-0.5
		C363.9,649.5,363.2,649.5,362.5,649.5L362.5,649.5z M376.5,655.6c0,3.2,2.5,5.5,6.1,5.5c2.5,0,3.9-1.3,4.4-1.8v-1.2H387
		c-0.8,0.9-1.9,2.4-4.4,2.4c-1.7,0-4.4-1.3-4.4-5.1c0-2.4,1-5.4,4.3-5.4c3,0,3.8,1.6,4.2,2.4h0.3l0.1-2.2c-0.2,0-0.5-0.1-0.8-0.2
		c-0.6-0.2-2.1-0.7-3.7-0.7C378.7,649.3,376.5,652.5,376.5,655.6L376.5,655.6z M391.2,660.5H391v0.5c0.4,0,1,0,1.6,0
		c0.8,0,1.4,0,2,0v-0.5h-0.4c-0.5,0-0.7-0.2-0.7-0.5c0-0.4,0.2-0.8,0.3-1.2l0.9-2.5h3.7l1.2,2.9c0.1,0.1,0.2,0.6,0.2,0.8
		c0,0.3-0.3,0.5-0.8,0.5h-0.4v0.5c0.6,0,1.4,0,2.2,0c0.8,0,1.6,0,2.2,0v-0.5h-0.3c-0.7,0-1.2-0.6-1.6-1.6l-4.1-9.9h-0.3l-3.7,9.7
		C392.4,660.1,392.1,660.5,391.2,660.5L391.2,660.5z M394.9,655.6l1.5-4.4l1.8,4.4H394.9L394.9,655.6z"/>
</g>
</svg>
